# Blender v2.80 (sub 75) OBJ File: ''
# www.blender.org
mtllib ball spikes.mtl
o Icosphere_Icosphere.003
v 0.000000 -0.545736 0.000000
v 0.394898 -0.244064 0.286907
v -0.150835 -0.244064 0.464230
v -0.488120 -0.244061 0.000000
v -0.150835 -0.244064 -0.464230
v 0.394898 -0.244064 -0.286907
v 0.150835 0.244064 0.464230
v -0.394898 0.244064 0.286907
v -0.394898 0.244064 -0.286907
v 0.150835 0.244064 -0.464230
v 0.488120 0.244061 0.000000
v 0.000000 0.545736 0.000000
v -0.088658 -0.464232 0.272865
v 0.232114 -0.464232 0.168638
v 0.143457 -0.286914 0.441506
v 0.464229 -0.286913 0.000000
v 0.232114 -0.464232 -0.168638
v -0.286909 -0.464231 0.000000
v -0.375569 -0.286913 0.272866
v -0.088658 -0.464232 -0.272865
v -0.375569 -0.286913 -0.272866
v 0.143457 -0.286914 -0.441506
v 0.519026 0.000000 0.168639
v 0.519026 0.000000 -0.168639
v 0.000000 0.000000 0.545735
v 0.320775 0.000000 0.441509
v -0.519026 0.000000 0.168639
v -0.320775 0.000000 0.441509
v -0.320775 0.000000 -0.441509
v -0.519026 0.000000 -0.168639
v 0.320775 0.000000 -0.441509
v 0.000000 0.000000 -0.545735
v 0.375569 0.286913 0.272866
v -0.143457 0.286914 0.441506
v -0.464229 0.286913 0.000000
v -0.143457 0.286914 -0.441506
v 0.375569 0.286913 -0.272866
v 0.088658 0.464232 0.272865
v 0.286909 0.464231 0.000000
v -0.232114 0.464232 0.168638
v -0.232114 0.464232 -0.168638
v 0.088658 0.464232 -0.272865
v 0.051284 0.467738 -0.125219
v -0.134085 0.467738 0.018197
v 0.082801 0.467738 0.107023
v 0.000000 0.935477 -0.000000
v 0.417240 0.228115 0.104707
v 0.261181 0.326947 0.248956
v 0.359264 0.121681 0.305307
v 0.691790 0.451161 0.439314
v -0.125242 -0.122972 0.454182
v -0.326699 -0.052721 0.357180
v -0.248309 -0.270417 0.319854
v -0.466834 -0.297406 0.754144
v -0.429521 0.138893 -0.182510
v -0.486865 -0.004080 -0.005874
v -0.432853 0.219836 0.037415
v -0.899493 0.236433 -0.100646
v 0.271569 -0.205023 -0.348289
v 0.063364 -0.310485 -0.369693
v 0.098514 -0.099853 -0.466276
v 0.288965 -0.410240 -0.789506
v 0.244959 -0.331956 0.258630
v 0.084918 -0.457786 0.142513
v 0.283723 -0.394075 0.035990
v 0.409067 -0.789211 0.291422
v -0.377013 -0.304935 -0.044332
v -0.303010 -0.274339 -0.264598
v -0.194835 -0.428384 -0.124963
v -0.583238 -0.671772 -0.289262
v -0.101697 0.338636 -0.334772
v 0.120691 0.279876 -0.379727
v -0.054371 0.146932 -0.461025
v -0.023584 0.510296 -0.783683
v 0.418731 0.175440 -0.175996
v 0.485429 -0.001869 -0.038001
v 0.411597 -0.044632 -0.256290
v 0.877172 0.085959 -0.313525
v -0.139549 0.338705 0.320771
v -0.173811 0.136338 0.433925
v 0.040185 0.231624 0.426409
v -0.182117 0.471112 0.787403
vt 0.000000 0.000000
vt 0.000000 0.000000
vt 0.000000 0.000000
vt 0.000000 0.000000
vt 0.000000 0.000000
vt 0.000000 0.000000
vt 0.000000 0.000000
vt 0.000000 0.000000
vt 0.000000 0.000000
vt 0.000000 0.000000
vt 0.000000 0.000000
vt 0.000000 0.000000
vt 0.000000 0.000000
vt 0.000000 0.000000
vt 0.000000 0.000000
vt 0.000000 0.000000
vt 0.000000 0.000000
vt 0.000000 0.000000
vt 0.000000 0.000000
vt 0.000000 0.000000
vt 0.000000 0.000000
vt 0.000000 0.000000
vt 0.000000 0.000000
vt 0.000000 0.000000
vt 0.000000 0.000000
vt 0.000000 0.000000
vt 0.000000 0.000000
vt 0.000000 0.000000
vt 0.000000 0.000000
vt 0.000000 0.000000
vt 0.000000 0.000000
vt 0.000000 0.000000
vt 0.000000 0.000000
vt 0.000000 0.000000
vt 0.000000 0.000000
vt 0.000000 0.000000
vt 0.000000 0.000000
vt 0.000000 0.000000
vt 0.000000 0.000000
vt 0.000000 0.000000
vt 0.818181 0.000000
vt 0.772726 0.078731
vt 0.863635 0.078731
vt 0.727272 0.157461
vt 0.681818 0.078731
vt 0.636363 0.157461
vt 0.090909 0.000000
vt 0.045454 0.078731
vt 0.136363 0.078731
vt 0.272727 0.000000
vt 0.227273 0.078731
vt 0.318182 0.078731
vt 0.454545 0.000000
vt 0.409090 0.078731
vt 0.500000 0.078731
vt 0.681818 0.236191
vt 0.909090 0.157461
vt 0.818181 0.157461
vt 0.863635 0.236191
vt 0.181818 0.157461
vt 0.090909 0.157461
vt 0.136363 0.236191
vt 0.363636 0.157461
vt 0.272727 0.157461
vt 0.318182 0.236191
vt 0.545454 0.157461
vt 0.454545 0.157461
vt 0.500000 0.236191
vt 0.772726 0.236191
vt 0.954545 0.236191
vt 0.227273 0.236191
vt 0.409090 0.236191
vt 0.590909 0.236191
vt 0.818181 0.314921
vt 0.727272 0.314921
vt 0.772726 0.393651
vt 1.000000 0.314921
vt 0.909091 0.314921
vt 0.954545 0.393651
vt 0.272727 0.314921
vt 0.181818 0.314921
vt 0.227273 0.393651
vt 0.454545 0.314921
vt 0.363636 0.314921
vt 0.409090 0.393651
vt 0.636363 0.314921
vt 0.545454 0.314921
vt 0.590909 0.393651
vt 0.500000 0.393651
vt 0.545454 0.472382
vt 0.318182 0.393651
vt 0.363636 0.472382
vt 0.136363 0.393651
vt 0.181818 0.472382
vt 0.090909 0.314921
vt 0.863635 0.393651
vt 0.909090 0.472382
vt 0.681818 0.393651
vt 0.727272 0.472382
vt 0.045454 0.236191
vt 0.000000 0.157461
vt 0.590909 0.078731
vt 0.636363 0.000000
vn -0.9807 -0.1432 0.1331
vn 0.3751 -0.1432 -0.9159
vn 0.6056 -0.1432 0.7828
vn -0.7255 0.6724 0.1471
vn 0.4160 -0.0505 -0.9080
vn -0.0081 -0.8290 0.5592
vn -0.6108 0.7475 -0.2609
vn 0.8626 0.2337 0.4486
vn -0.0375 -0.8447 -0.5339
vn -0.1338 -0.9307 0.3405
vn 0.2856 0.1151 -0.9514
vn 0.2612 0.7071 0.6571
vn -0.6375 -0.7079 0.3041
vn 0.8853 0.0635 0.4607
vn -0.3804 0.8327 -0.4023
vn -0.9375 -0.3413 -0.0680
vn 0.2331 0.5790 0.7813
vn 0.5166 0.1247 -0.8471
vn 0.0059 0.5530 -0.8332
vn -0.5353 0.3292 0.7779
vn 0.7971 -0.5737 0.1881
vn 0.9726 0.1028 0.2085
vn -0.6540 0.5325 0.5373
vn -0.3078 -0.8696 -0.3861
vn 0.2084 -0.3412 0.9166
vn -0.2795 0.9557 -0.0927
vn -0.3316 -0.6540 -0.6800
vn -0.5774 -0.7978 0.1737
vn -0.3268 0.6823 -0.6539
vn 0.9878 -0.1009 0.1187
vn 0.0000 -1.0000 0.0000
vn 0.4253 -0.8506 0.3090
vn -0.1625 -0.8506 0.5000
vn 0.7236 -0.4472 0.5257
vn 0.8506 -0.5257 0.0000
vn -0.5257 -0.8506 0.0000
vn -0.1625 -0.8506 -0.5000
vn 0.4253 -0.8506 -0.3090
vn 0.9510 0.0000 0.3090
vn -0.2764 -0.4472 0.8506
vn 0.2629 -0.5257 0.8090
vn 0.0000 0.0000 1.0000
vn -0.8944 -0.4472 0.0000
vn -0.6882 -0.5257 0.5000
vn -0.9510 0.0000 0.3090
vn -0.2764 -0.4472 -0.8506
vn -0.6882 -0.5257 -0.5000
vn -0.5878 0.0000 -0.8090
vn 0.7236 -0.4472 -0.5257
vn 0.2629 -0.5257 -0.8090
vn 0.5878 0.0000 -0.8090
vn 0.5878 0.0000 0.8090
vn -0.5878 0.0000 0.8090
vn -0.9510 0.0000 -0.3090
vn 0.0000 0.0000 -1.0000
vn 0.9510 0.0000 -0.3090
vn 0.2764 0.4472 0.8506
vn 0.6882 0.5257 0.5000
vn 0.1625 0.8506 0.5000
vn -0.7236 0.4472 0.5257
vn -0.2629 0.5257 0.8090
vn -0.4253 0.8506 0.3090
vn -0.7236 0.4472 -0.5257
vn -0.8506 0.5257 0.0000
vn -0.4253 0.8506 -0.3090
vn 0.2764 0.4472 -0.8506
vn -0.2629 0.5257 -0.8090
vn 0.1625 0.8506 -0.5000
vn 0.8944 0.4472 0.0000
vn 0.6882 0.5257 -0.5000
vn 0.5257 0.8506 0.0000
vn 0.0000 1.0000 0.0000
usemtl None
s off
f 43/1/1 45/2/1 46/3/1
f 45/2/2 44/4/2 46/3/2
f 44/4/3 43/1/3 46/3/3
f 47/5/4 49/6/4 50/7/4
f 49/6/5 48/8/5 50/7/5
f 48/8/6 47/5/6 50/7/6
f 51/9/7 53/10/7 54/11/7
f 53/10/8 52/12/8 54/11/8
f 52/12/9 51/9/9 54/11/9
f 55/13/10 57/14/10 58/15/10
f 57/14/11 56/16/11 58/15/11
f 56/16/12 55/13/12 58/15/12
f 59/17/13 61/18/13 62/19/13
f 61/18/14 60/20/14 62/19/14
f 60/20/15 59/17/15 62/19/15
f 63/21/16 65/22/16 66/23/16
f 65/22/17 64/24/17 66/23/17
f 64/24/18 63/21/18 66/23/18
f 67/25/19 69/26/19 70/27/19
f 69/26/20 68/28/20 70/27/20
f 68/28/21 67/25/21 70/27/21
f 71/29/22 73/30/22 74/31/22
f 73/30/23 72/32/23 74/31/23
f 72/32/24 71/29/24 74/31/24
f 75/33/25 77/34/25 78/35/25
f 77/34/26 76/36/26 78/35/26
f 76/36/27 75/33/27 78/35/27
f 79/37/28 81/38/28 82/39/28
f 81/38/29 80/40/29 82/39/29
f 80/40/30 79/37/30 82/39/30
s 1
f 1/41/31 14/42/32 13/43/33
f 2/44/34 14/45/32 16/46/35
f 1/47/31 13/48/33 18/49/36
f 1/50/31 18/51/36 20/52/37
f 1/53/31 20/54/37 17/55/38
f 2/44/34 16/46/35 23/56/39
f 3/57/40 15/58/41 25/59/42
f 4/60/43 19/61/44 27/62/45
f 5/63/46 21/64/47 29/65/48
f 6/66/49 22/67/50 31/68/51
f 2/44/34 23/56/39 26/69/52
f 3/57/40 25/59/42 28/70/53
f 4/60/43 27/62/45 30/71/54
f 5/63/46 29/65/48 32/72/55
f 6/66/49 31/68/51 24/73/56
f 7/74/57 33/75/58 38/76/59
f 8/77/60 34/78/61 40/79/62
f 9/80/63 35/81/64 41/82/65
f 10/83/66 36/84/67 42/85/68
f 11/86/69 37/87/70 39/88/71
f 39/88/71 42/89/68 12/90/72
f 39/88/71 37/87/70 42/89/68
f 37/87/70 10/83/66 42/89/68
f 42/85/68 41/91/65 12/92/72
f 42/85/68 36/84/67 41/91/65
f 36/84/67 9/80/63 41/91/65
f 41/82/65 40/93/62 12/94/72
f 41/82/65 35/81/64 40/93/62
f 35/81/64 8/95/60 40/93/62
f 40/79/62 38/96/59 12/97/72
f 40/79/62 34/78/61 38/96/59
f 34/78/61 7/74/57 38/96/59
f 38/76/59 39/98/71 12/99/72
f 38/76/59 33/75/58 39/98/71
f 33/75/58 11/86/69 39/98/71
f 24/73/56 37/87/70 11/86/69
f 24/73/56 31/68/51 37/87/70
f 31/68/51 10/83/66 37/87/70
f 32/72/55 36/84/67 10/83/66
f 32/72/55 29/65/48 36/84/67
f 29/65/48 9/80/63 36/84/67
f 30/71/54 35/81/64 9/80/63
f 30/71/54 27/62/45 35/81/64
f 27/62/45 8/95/60 35/81/64
f 28/70/53 34/78/61 8/77/60
f 28/70/53 25/59/42 34/78/61
f 25/59/42 7/74/57 34/78/61
f 26/69/52 33/75/58 7/74/57
f 26/69/52 23/56/39 33/75/58
f 23/56/39 11/86/69 33/75/58
f 31/68/51 32/72/55 10/83/66
f 31/68/51 22/67/50 32/72/55
f 22/67/50 5/63/46 32/72/55
f 29/65/48 30/71/54 9/80/63
f 29/65/48 21/64/47 30/71/54
f 21/64/47 4/60/43 30/71/54
f 27/62/45 28/100/53 8/95/60
f 27/62/45 19/61/44 28/100/53
f 19/61/44 3/101/40 28/100/53
f 25/59/42 26/69/52 7/74/57
f 25/59/42 15/58/41 26/69/52
f 15/58/41 2/44/34 26/69/52
f 23/56/39 24/73/56 11/86/69
f 23/56/39 16/46/35 24/73/56
f 16/46/35 6/66/49 24/73/56
f 17/55/38 22/67/50 6/66/49
f 17/55/38 20/54/37 22/67/50
f 20/54/37 5/63/46 22/67/50
f 20/52/37 21/64/47 5/63/46
f 20/52/37 18/51/36 21/64/47
f 18/51/36 4/60/43 21/64/47
f 18/49/36 19/61/44 4/60/43
f 18/49/36 13/48/33 19/61/44
f 13/48/33 3/101/40 19/61/44
f 16/46/35 17/102/38 6/66/49
f 16/46/35 14/45/32 17/102/38
f 14/45/32 1/103/31 17/102/38
f 13/43/33 15/58/41 3/57/40
f 13/43/33 14/42/32 15/58/41
f 14/42/32 2/44/34 15/58/41
