# Blender v2.76 (sub 0) OBJ File: 'blocks.blend'
# www.blender.org
mtllib block1.mtl
o LP_Cube.014
v 0.576098 -1.041958 -1.038200
v 0.066896 -0.217992 -1.021987
v -0.588444 0.908518 -0.070585
v 0.263813 0.115580 -1.038349
v 0.460591 -1.050801 0.914499
v -0.451222 0.353930 -1.037122
v -0.985058 0.012742 0.278381
v -0.166654 -0.395744 -1.046097
v -0.997774 -1.036059 -0.216033
v -0.991079 -0.331206 -0.999069
v -0.995272 -0.558500 -0.474346
v -0.710347 0.888671 -1.035059
v -1.005366 0.893186 -0.808159
v -0.993816 -0.375993 -0.203170
v -0.847085 0.899917 0.942724
v -0.426872 -1.045251 -0.143175
v -0.312697 -1.066680 0.400734
v -0.162126 -1.025552 -0.445252
v 0.490941 -1.043246 -0.600116
v 0.105277 -1.051901 -0.077448
v 0.274405 -1.050110 0.328661
v -1.002478 0.045779 -0.057873
v 0.102130 0.930968 -0.990755
v -0.340182 0.923264 -0.684577
v -0.977571 -0.744469 0.176378
v -0.965166 -0.749604 0.627378
v 0.903310 0.930833 -0.400094
v -0.237045 0.921736 -0.051234
v -0.540440 0.930885 0.183607
v 0.066066 0.913793 -0.313932
v 0.219414 0.894282 -0.535636
v -0.142099 -0.619000 0.936393
v -0.559047 -0.679729 0.919389
v 0.181574 -1.056147 -0.990649
v -0.651032 -1.027943 -0.571157
v -0.991559 -0.339016 0.457085
v 0.964436 -0.915958 0.926359
v -0.614288 -1.042786 0.592776
v -1.007395 0.859055 0.177715
v -0.592059 -0.401501 -1.030994
v -0.995697 0.119334 -0.531535
v -0.201617 0.212439 -1.042011
v -0.988609 0.610423 0.048045
v -0.550550 0.903205 0.847998
v -0.034180 0.902560 0.700031
v 0.564121 0.901943 -0.524384
v 0.955745 0.214701 -0.052209
v 0.953625 0.877642 -0.030192
v 0.981559 0.328027 0.255884
v 0.967768 -0.066699 0.362278
v -0.850571 0.928906 0.577021
v -0.987470 0.397643 0.373107
v -0.274641 -0.223053 0.924750
v 0.460833 0.913238 -0.987273
v 0.975455 0.839361 -0.944924
v 0.777002 0.915333 -1.030953
v -0.629590 0.140412 0.934583
v -0.950375 0.921311 0.092834
v -1.003160 0.862650 0.809439
v 0.929587 -0.037479 -1.038452
v -0.991274 0.204763 0.711511
v -0.900414 0.560112 0.930321
v -1.000212 -0.944215 0.890607
v -0.975143 -1.067667 0.255419
v -1.011497 -0.921673 -1.029149
v -0.970139 0.098748 -1.038813
v -0.453802 0.534671 0.914810
v 0.269592 0.324085 0.921912
v -0.735958 -0.968402 -1.021080
v -0.368808 -1.068172 -1.000890
v 0.031205 0.488591 0.939675
v -0.136441 0.628100 0.940072
v 0.528510 0.792868 0.942930
v -0.073423 -0.991133 -1.040894
v 0.409715 0.903274 0.914778
v 0.287284 0.886209 0.613431
v 0.978409 -0.981075 -1.026311
v 0.926937 -0.376104 -1.034697
v 0.589115 -0.474818 -1.040721
v 0.987324 -0.099298 0.933459
v 0.181286 -0.118375 0.942197
v 0.372318 -0.426090 0.936282
v 0.517885 0.219907 0.925823
v 0.864914 -1.044258 0.941677
v -0.048822 0.098184 0.924152
v 0.974774 -0.563355 -0.327680
v 0.923179 -0.405439 -0.738870
v 0.963187 -0.780616 -0.013465
v 0.967993 0.526543 -1.033481
v -0.304671 0.899507 -1.017239
v -0.995044 0.535271 -0.940057
v -0.931215 -1.038737 0.847456
v -1.002154 0.323998 0.900040
v -0.970998 0.785768 -1.031615
v -0.970797 -0.300864 0.930888
v 0.846504 0.933600 0.399074
v 0.990489 0.805586 0.393496
v 0.925658 0.917814 0.830338
v 0.979081 0.834068 0.921583
v 0.964161 -1.046434 0.479852
v -0.170554 0.913894 0.933853
v -0.757349 -1.016985 0.942443
v -0.632074 -0.216023 0.941563
v 0.006411 -0.972602 0.943720
v -0.221057 -1.062129 0.903215
v 0.941594 -1.047753 -0.668641
v 0.971447 -0.054481 -0.946492
v 0.186882 0.778718 -1.038278
v 0.700170 0.892821 -0.081950
v 0.958327 0.317066 -0.490586
v 0.607342 0.269991 -1.042114
v 0.960646 -0.199107 -0.425380
v 0.963187 -0.484432 0.300710
v 0.414705 0.923208 -0.048869
v 0.535440 0.911495 0.431312
v 0.930575 -0.783185 0.622275
v 0.654727 -0.720520 0.897168
v -0.993426 -1.053274 -0.906099
v 0.960121 0.309916 0.919003
v 0.961743 -0.272094 -0.043809
v -0.996966 0.796129 -0.282147
v -0.940811 0.924606 -0.504842
v 0.974162 0.839879 -0.546528
v 0.950838 0.334885 0.752473
v 0.950388 -0.508903 0.923147
v 0.978573 -1.049138 -0.225123
v 0.946197 -0.674812 -0.931892
vt 0.668802 0.881827
vt 0.667611 0.744871
vt 0.684761 0.812554
vt 0.269279 0.317789
vt 0.157759 0.434366
vt 0.181524 0.259659
vt 0.142133 0.299792
vt 0.717320 0.751752
vt 0.141090 0.607472
vt 0.165168 0.702972
vt 0.085396 0.719005
vt 0.997177 0.868839
vt 0.921979 0.897907
vt 0.945969 0.838390
vt 0.214637 0.184304
vt 0.136341 0.162336
vt 0.786611 0.788070
vt 0.272434 0.149465
vt 0.326617 0.219007
vt 0.182420 0.830713
vt 0.126726 0.872270
vt 0.201779 0.034422
vt 0.016284 0.812496
vt 0.038172 0.893548
vt 0.094385 0.130317
vt 0.119173 0.007041
vt 0.189551 0.901030
vt 0.088974 0.901031
vt 0.070619 0.301022
vt 0.204060 0.887064
vt 0.237298 0.783031
vt 0.095644 0.565888
vt 0.002697 0.483119
vt 0.023465 0.453532
vt 0.375296 0.898297
vt 0.346012 0.876817
vt 0.399316 0.819226
vt 0.349644 0.222366
vt 0.342677 0.394981
vt 0.334753 0.274039
vt 0.221713 0.695926
vt 0.440495 0.459006
vt 0.393081 0.556204
vt 0.335423 0.480505
vt 0.336206 0.119958
vt 0.218822 0.451728
vt 0.325639 0.480419
vt 0.139550 0.458282
vt 0.728606 0.411383
vt 0.794945 0.341545
vt 0.810031 0.434270
vt 0.334753 0.636481
vt 0.338553 0.742983
vt 0.331730 0.625866
vt 0.294417 0.739862
vt 0.252121 0.616652
vt 0.728712 0.897036
vt 0.339184 0.434747
vt 0.355109 0.450042
vt 0.549964 0.105820
vt 0.441362 0.139238
vt 0.564823 0.005851
vt 0.050868 0.009422
vt 0.007053 0.187901
vt 0.961662 0.447363
vt 0.910572 0.432481
vt 1.000000 0.380855
vt 0.837751 0.352627
vt 0.689633 0.445926
vt 0.996889 0.776794
vt 0.892295 0.770757
vt 0.682930 0.672508
vt 0.667264 0.668371
vt 0.668747 0.541133
vt 0.803490 0.897943
vt 0.839222 0.837389
vt 0.337027 0.028464
vt 0.391660 0.075882
vt 0.667264 0.989134
vt 0.682738 0.897943
vt 0.682738 1.000000
vt 0.430803 0.652883
vt 0.475351 0.584617
vt 0.520335 0.667680
vt 0.548818 0.759447
vt 0.450022 0.775765
vt 0.465476 0.889322
vt 0.187698 0.000000
vt 0.248050 0.004067
vt 0.580179 0.891827
vt 0.007019 0.032634
vt 0.599505 0.450524
vt 0.661017 0.534003
vt 0.585202 0.549536
vt 0.941124 0.296871
vt 0.997180 0.289135
vt 0.992838 0.197090
vt 0.999604 0.440081
vt 0.667264 0.634231
vt 0.837684 0.462654
vt 0.833462 0.612432
vt 0.759833 0.588913
vt 0.358557 0.005937
vt 0.301093 0.003646
vt 0.646351 0.102823
vt 0.667177 0.260710
vt 0.595482 0.215475
vt 0.916449 0.170412
vt 0.879013 0.204861
vt 0.834637 0.273164
vt 0.281070 0.524074
vt 0.205233 0.524671
vt 0.664884 0.793559
vt 0.834574 0.125877
vt 0.648216 0.897941
vt 0.999140 0.897340
vt 0.770399 0.705610
vt 0.427057 0.008763
vt 0.495945 0.000000
vt 0.708419 0.226902
vt 0.834517 0.722457
vt 0.750923 0.470816
vt 0.723205 0.154365
vt 0.992494 0.116085
vt 0.914712 0.092484
vt 0.672521 0.126451
vt 0.686949 0.009868
vt 0.759410 0.027981
vt 0.399305 0.349986
vt 0.409240 0.255640
vt 0.477361 0.365963
vt 0.903006 0.676453
vt 0.968862 0.585992
vt 0.885499 0.587240
vt 0.608131 0.425953
vt 0.537335 0.365116
vt 0.603567 0.325141
vt 0.659170 0.449486
vt 0.665263 0.413539
vt 0.683256 0.343493
vt 0.668978 0.257533
vt 0.493258 0.182096
vt 0.665021 0.129702
vt 0.007148 0.616601
vt 0.000000 0.713721
vt 0.000576 0.868995
vt 0.753893 0.098324
vt 0.267027 0.445961
vt 0.533112 0.461287
vt 0.490278 0.450042
vt 0.667177 0.410453
vt 0.200814 0.449103
vt 0.108191 0.451728
vt 0.046373 0.429118
vt 0.003430 0.448259
vt 0.831853 0.004226
vt 0.310317 0.888665
vt 0.000000 0.418511
vt 0.318259 0.459007
vt 0.463314 0.442624
vt 0.326055 0.767044
vt 0.568488 0.449300
vt 0.997846 0.473503
vt 0.909070 0.479510
vt 0.567657 0.161846
vt 0.529856 0.233982
vt 0.893890 0.015664
vt 1.000000 0.044660
vt 0.475954 0.285290
vt 0.326142 0.295537
vt 0.334752 0.432269
vt 0.333165 0.091544
vt 0.667264 0.453257
vt 0.840382 0.061486
vt 0.619065 0.253228
vt 0.653000 0.001085
vt 0.683928 0.470573
vt 0.334753 0.020851
vt 0.982294 0.454228
vt 0.985866 0.000000
vt 0.775259 0.450042
vt 0.667177 0.013524
vt 0.996896 0.591833
vt 0.999140 0.684442
vn 0.684400 -0.449600 -0.573900
vn 0.693400 -0.025800 -0.720100
vn 0.997500 0.066300 0.024500
vn 0.000100 -0.000600 -1.000000
vn 0.003200 -0.276500 -0.961000
vn 0.020400 -0.003600 -0.999800
vn 0.028500 0.001300 -0.999600
vn 0.999100 -0.004200 -0.041400
vn -0.999800 -0.015000 0.010000
vn -0.999800 -0.011900 0.018500
vn -0.999900 -0.002700 -0.007900
vn 0.740800 -0.132400 0.658500
vn 0.739400 -0.672700 0.029000
vn 0.999400 0.032500 -0.010000
vn -0.011000 -0.013400 -0.999800
vn -0.003100 -0.001700 -1.000000
vn 0.999500 0.022200 -0.020800
vn 0.004200 0.004600 -1.000000
vn 0.535400 -0.022300 -0.844300
vn -0.999700 -0.022700 0.001600
vn -0.981600 0.190600 0.001500
vn 0.002700 0.155700 -0.987800
vn -0.991500 -0.000300 -0.129700
vn -0.733900 0.663000 -0.147700
vn -0.003600 0.009400 -0.999900
vn -0.028000 0.695200 -0.718300
vn -0.450500 0.891600 -0.045100
vn -0.450700 0.892000 0.033800
vn -0.016000 -0.010300 -0.999800
vn -0.941300 0.337000 -0.020600
vn -0.999900 -0.014400 -0.002300
vn -0.999900 0.002300 0.009700
vn -0.669800 -0.268800 -0.692200
vn -0.623200 -0.742500 -0.245600
vn -0.072800 -0.633700 0.770100
vn -0.393500 -0.858200 0.329400
vn -0.009100 -0.999600 0.025900
vn 0.007200 -0.172400 0.985000
vn -0.002400 -0.867100 0.498100
vn -0.999900 -0.003600 0.013700
vn -0.021000 -0.847600 -0.530200
vn 0.011600 -0.999500 0.027300
vn -0.017100 -0.887100 0.461300
vn -0.547800 -0.836500 0.012800
vn -0.783800 -0.259700 0.564100
vn -0.733700 -0.679100 -0.020200
vn -0.141300 0.988800 0.047800
vn 0.005900 0.999800 -0.019400
vn -0.695200 -0.019300 0.718500
vn -0.999500 -0.029000 -0.015700
vn -0.999500 -0.021400 0.019900
vn 0.665100 -0.744800 -0.054200
vn 0.007700 0.001300 1.000000
vn 0.028300 -0.047400 0.998500
vn 0.724900 0.013600 0.688700
vn -0.061800 0.679900 -0.730700
vn -0.580900 0.006900 -0.813900
vn -0.005600 0.999600 -0.027900
vn -0.799200 0.511400 0.316000
vn 0.680000 -0.023700 0.732800
vn 0.999400 -0.028700 0.017500
vn 0.982200 -0.048600 -0.181400
vn 0.711300 0.024800 -0.702400
vn 0.718200 -0.695800 -0.006800
vn 0.999300 0.018200 0.033200
vn 0.306400 -0.647400 0.697800
vn -0.001100 0.025500 0.999700
vn 0.404000 0.868900 0.285800
vn 0.056400 0.177600 0.982500
vn 0.654500 0.367900 0.660500
vn -0.027000 -0.999100 -0.033200
vn -0.009200 -0.999900 -0.010800
vn 0.001600 -0.999600 -0.026000
vn 0.010900 -0.999900 -0.001600
vn -0.003600 -0.997100 0.075700
vn 0.031000 0.834000 -0.550800
vn -0.047500 0.888200 -0.457000
vn -0.609300 0.326600 -0.722500
vn 0.042300 -0.703600 -0.709300
vn -0.005300 -1.000000 0.000800
vn -0.006500 0.999700 -0.023200
vn 0.880100 0.474800 0.001400
vn 0.999100 0.007400 -0.040100
vn 0.999800 -0.004100 0.016100
vn 0.173900 0.709600 -0.682700
vn -0.013100 0.728300 0.685100
vn 0.013700 -0.024100 0.999600
vn 0.019800 0.999800 -0.003500
vn 0.026300 0.998900 -0.037600
vn 0.002600 1.000000 -0.000100
vn -0.996500 0.083000 -0.000100
vn -0.999700 0.022800 0.010100
vn 0.037700 0.999300 -0.002500
vn 0.999700 -0.007900 -0.021300
vn 0.817600 -0.048100 0.573700
vn 0.025300 0.999600 -0.013900
vn 1.000000 0.005900 -0.002400
vn 0.952300 0.304900 0.011600
vn -0.015600 0.999800 -0.006800
vn -0.034500 0.999400 0.002700
vn 0.024100 0.801000 0.598200
vn 0.134400 0.990700 -0.021100
vn 0.000800 0.009600 0.999900
vn -0.005500 -0.001600 1.000000
vn -0.001800 -0.002600 1.000000
vn 0.999700 -0.014800 0.021200
vn 0.999800 -0.016600 -0.006700
vn 0.999800 -0.011800 -0.014600
vn -0.291700 0.054500 0.954900
vn 0.000600 0.010800 0.999900
vn -0.030000 0.018100 0.999400
vn -0.269500 0.626900 0.730900
vn 0.001500 0.999900 0.009800
vn -0.003700 0.018900 0.999800
vn -0.998100 0.025100 -0.056200
vn -0.054200 0.998300 0.021900
vn -0.020400 -0.940600 -0.338800
vn -0.066700 -0.352200 -0.933500
vn -0.832100 0.010800 0.554500
vn 0.975700 0.219000 -0.004800
vn 0.006000 -0.014600 0.999800
vn -0.005200 0.000100 1.000000
vn 0.378800 0.925400 -0.001300
vn 0.009000 0.021500 0.999700
vn -0.056400 0.998400 -0.008400
vn -0.023800 0.018300 0.999500
vn 0.793400 0.475300 -0.380300
usemtl GAMEPREV
s 1
f 77/1/1 78/2/2 127/3/3
f 79/4/4 74/5/5 2/6/6
f 74/5/5 8/7/7 2/6/6
f 78/2/2 87/8/8 127/3/3
f 14/9/9 22/10/10 41/11/11
f 37/12/12 100/13/13 116/14/14
f 4/15/15 2/6/6 42/16/16
f 127/3/3 87/8/8 86/17/17
f 111/18/18 60/19/19 79/4/4
f 43/20/20 121/21/21 22/10/10
f 108/22/22 4/15/15 42/16/16
f 91/23/23 121/21/21 13/24/24
f 108/22/22 6/25/25 90/26/26
f 121/21/21 58/27/27 122/28/28
f 74/5/5 40/29/29 8/7/7
f 39/30/30 121/21/21 43/20/20
f 121/21/21 91/23/23 41/11/11
f 22/10/10 52/31/31 43/20/20
f 22/10/10 121/21/21 41/11/11
f 42/16/16 6/25/25 108/22/22
f 11/32/32 65/33/33 118/34/34
f 102/35/35 92/36/36 38/37/37
f 6/25/25 42/16/16 40/29/29
f 8/7/7 40/29/29 42/16/16
f 42/16/16 2/6/6 8/7/7
f 104/38/38 102/39/35 105/40/39
f 22/10/10 7/41/40 52/31/31
f 70/42/41 35/43/42 118/44/34
f 5/45/43 104/38/38 105/40/39
f 64/46/44 63/47/45 9/48/46
f 51/49/47 29/50/48 58/51/27
f 9/52/46 35/43/42 64/53/44
f 95/54/49 61/55/50 36/56/51
f 106/57/52 77/1/1 127/3/3
f 92/58/36 102/39/35 63/59/45
f 83/60/53 82/61/54 119/62/55
f 12/63/56 6/25/25 66/64/57
f 64/53/44 35/43/42 38/37/37
f 6/25/25 40/29/29 66/64/57
f 13/65/24 122/66/28 12/67/56
f 13/24/24 121/21/21 122/28/28
f 58/51/27 3/68/58 122/66/28
f 59/69/59 51/49/47 58/51/27
f 125/70/60 116/14/14 113/71/61
f 107/72/62 60/73/19 89/74/63
f 126/75/64 86/17/17 88/76/65
f 104/38/38 84/77/66 117/78/67
f 61/55/50 52/31/31 7/41/40
f 98/79/68 73/80/69 99/81/70
f 16/82/71 18/83/72 20/84/73
f 20/84/73 21/85/74 17/86/75
f 105/87/39 102/35/35 38/37/37
f 23/88/76 54/89/77 108/22/22
f 17/86/75 21/85/74 38/37/37
f 5/90/43 105/87/39 21/85/74
f 105/87/39 38/37/37 21/85/74
f 66/64/57 94/91/78 12/63/56
f 39/30/30 43/20/20 52/31/31
f 1/92/79 106/93/52 19/94/80
f 12/67/56 122/66/28 24/95/81
f 20/84/73 18/83/72 19/94/80
f 90/96/26 24/95/81 23/97/76
f 21/85/74 20/84/73 19/94/80
f 13/65/24 12/67/56 94/98/78
f 126/99/64 21/85/74 19/94/80
f 48/100/82 47/101/83 110/102/84
f 117/78/67 84/77/66 37/103/12
f 108/22/22 56/104/85 111/18/18
f 104/38/38 5/45/43 84/77/66
f 73/105/69 101/106/86 71/107/87
f 23/97/76 24/95/81 31/108/88
f 30/109/89 31/108/88 24/95/81
f 24/95/81 3/68/58 28/110/90
f 24/95/81 28/110/90 30/109/89
f 26/111/91 25/112/92 63/47/45
f 14/9/9 25/112/92 36/56/51
f 36/56/51 26/111/91 95/54/49
f 25/112/92 26/111/91 36/56/51
f 21/85/74 100/113/13 5/90/43
f 28/110/90 114/114/93 30/109/89
f 84/115/66 5/90/43 100/113/13
f 122/66/28 3/68/58 24/95/81
f 84/116/66 100/13/13 37/12/12
f 3/68/58 58/51/27 29/50/48
f 110/102/84 47/101/83 112/117/94
f 125/118/60 80/119/95 117/78/67
f 45/120/96 28/110/90 29/50/48
f 113/71/61 88/76/65 120/121/97
f 29/50/48 28/110/90 3/68/58
f 110/102/84 89/74/63 123/122/98
f 107/72/62 110/102/84 112/117/94
f 110/102/84 107/72/62 89/74/63
f 45/120/96 76/123/99 28/110/90
f 7/41/40 36/56/51 61/55/50
f 28/110/90 76/123/99 114/114/93
f 38/37/37 35/43/42 16/82/71
f 31/108/88 54/124/77 23/97/76
f 46/125/100 54/124/77 31/108/88
f 30/109/89 114/114/93 31/108/88
f 75/126/101 98/127/68 96/128/102
f 110/102/84 123/122/98 48/100/82
f 37/12/12 116/14/14 125/70/60
f 111/18/18 79/4/4 4/15/15
f 33/129/103 32/130/104 103/131/105
f 120/121/97 88/76/65 86/17/17
f 79/4/4 2/6/6 4/15/15
f 125/70/60 113/71/61 50/132/106
f 125/70/60 50/132/106 124/133/107
f 49/134/108 124/133/107 50/132/106
f 62/135/109 57/136/110 67/137/111
f 59/138/59 62/135/109 15/139/112
f 82/61/54 32/130/104 117/78/67
f 117/78/67 32/130/104 104/38/38
f 44/140/113 101/141/86 45/120/96
f 83/60/53 81/142/114 82/61/54
f 117/78/67 80/119/95 82/61/54
f 119/62/55 82/61/54 80/119/95
f 75/143/101 101/106/86 73/105/69
f 90/26/26 23/88/76 108/22/22
f 90/26/26 6/25/25 12/63/56
f 56/104/85 108/22/22 54/89/77
f 88/76/65 113/71/61 116/14/14
f 21/85/74 126/99/64 100/113/13
f 10/144/115 11/32/32 41/11/11
f 91/23/23 10/144/115 41/11/11
f 14/9/9 41/11/11 11/32/32
f 10/144/115 91/23/23 66/145/57
f 94/146/78 91/23/23 13/24/24
f 91/23/23 94/146/78 66/145/57
f 114/114/93 76/123/99 115/147/116
f 79/4/4 1/148/79 74/5/5
f 14/9/9 7/41/40 22/10/10
f 34/149/117 19/94/80 18/83/72
f 1/92/79 34/149/117 74/150/5
f 34/149/117 1/92/79 19/94/80
f 7/41/40 14/9/9 36/56/51
f 18/83/72 35/43/42 34/149/117
f 9/48/46 25/112/92 11/32/32
f 10/144/115 66/145/57 65/33/33
f 15/151/112 51/49/47 59/69/59
f 35/43/42 18/83/72 16/82/71
f 15/151/112 101/141/86 44/140/113
f 34/152/117 70/153/41 74/5/5
f 35/43/42 70/42/41 34/149/117
f 70/153/41 69/154/118 74/5/5
f 118/155/34 69/154/118 70/153/41
f 14/9/9 11/32/32 25/112/92
f 96/128/102 98/127/68 48/156/82
f 118/34/34 9/48/46 11/32/32
f 59/157/59 58/27/27 39/30/30
f 118/44/34 35/43/42 9/52/46
f 65/158/33 69/154/118 118/155/34
f 17/86/75 16/82/71 20/84/73
f 64/46/44 92/159/36 63/47/45
f 92/36/36 64/53/44 38/37/37
f 65/33/33 11/32/32 10/144/115
f 40/29/29 74/5/5 69/154/118
f 69/154/118 65/158/33 66/64/57
f 40/29/29 69/154/118 66/64/57
f 38/37/37 16/82/71 17/86/75
f 95/160/49 63/59/45 102/39/35
f 86/17/17 112/117/94 120/121/97
f 52/31/31 61/55/50 93/161/119
f 95/160/49 62/135/109 93/162/119
f 39/30/30 52/31/31 59/157/59
f 50/132/106 120/121/97 49/134/108
f 15/151/112 44/140/113 51/49/47
f 51/49/47 44/140/113 29/50/48
f 62/135/109 59/138/59 93/162/119
f 99/163/70 124/133/107 97/164/120
f 95/160/49 103/131/105 57/136/110
f 63/47/45 95/54/49 26/111/91
f 81/142/114 68/165/121 85/166/122
f 61/55/50 95/54/49 93/161/119
f 27/167/123 56/168/85 46/125/100
f 44/140/113 45/120/96 29/50/48
f 45/120/96 101/141/86 75/126/101
f 47/101/83 48/100/82 49/134/108
f 57/136/110 85/166/122 71/107/87
f 62/135/109 67/137/111 101/106/86
f 101/106/86 15/139/112 62/135/109
f 53/169/124 57/136/110 103/131/105
f 57/136/110 53/169/124 85/166/122
f 103/131/105 95/160/49 33/129/103
f 81/142/114 85/166/122 53/169/124
f 71/107/87 85/166/122 68/165/121
f 53/169/124 32/130/104 81/142/114
f 103/131/105 32/130/104 53/169/124
f 97/164/120 124/133/107 49/134/108
f 47/101/83 49/134/108 120/121/97
f 49/134/108 48/100/82 97/164/120
f 47/101/83 120/121/97 112/117/94
f 102/39/35 33/129/103 95/160/49
f 33/129/103 104/38/38 32/130/104
f 87/8/8 107/72/62 112/117/94
f 1/148/79 78/170/2 77/171/1
f 114/114/93 46/125/100 31/108/88
f 89/172/63 60/19/19 111/18/18
f 46/125/100 56/168/85 54/124/77
f 106/93/52 1/92/79 77/173/1
f 62/135/109 95/160/49 57/136/110
f 112/117/94 86/17/17 87/8/8
f 100/13/13 126/75/64 88/76/65
f 114/114/93 109/174/125 46/125/100
f 24/95/81 90/96/26 12/67/56
f 111/18/18 4/15/15 108/22/22
f 83/60/53 68/165/121 81/142/114
f 125/118/60 117/78/67 37/103/12
f 72/175/126 67/137/111 57/136/110
f 81/142/114 32/130/104 82/61/54
f 101/106/86 72/175/126 71/107/87
f 76/123/99 45/120/96 75/126/101
f 101/106/86 67/137/111 72/175/126
f 68/165/121 73/105/69 71/107/87
f 72/175/126 57/136/110 71/107/87
f 68/165/121 83/60/53 73/105/69
f 73/105/69 83/60/53 119/62/55
f 99/176/70 73/105/69 119/62/55
f 60/73/19 107/72/62 78/2/2
f 27/167/123 96/128/102 48/156/82
f 89/74/63 55/177/127 123/122/98
f 55/178/127 89/172/63 56/104/85
f 120/121/97 50/132/106 113/71/61
f 99/163/70 97/164/120 98/179/68
f 56/168/85 27/167/123 55/180/127
f 78/2/2 107/72/62 87/8/8
f 27/181/123 123/122/98 55/177/127
f 123/122/98 27/181/123 48/100/82
f 73/105/69 98/182/68 75/143/101
f 119/183/55 80/184/95 124/133/107
f 115/147/116 109/174/125 114/114/93
f 127/3/3 86/17/17 126/75/64
f 100/13/13 88/76/65 116/14/14
f 109/174/125 115/147/116 96/128/102
f 111/18/18 56/104/85 89/172/63
f 109/174/125 96/128/102 27/167/123
f 79/4/4 78/170/2 1/148/79
f 46/125/100 109/174/125 27/167/123
f 93/161/119 59/157/59 52/31/31
f 48/100/82 98/179/68 97/164/120
f 76/123/99 75/126/101 96/128/102
f 76/123/99 96/128/102 115/147/116
f 119/183/55 124/133/107 99/163/70
f 126/99/64 19/94/80 106/93/52
f 127/3/3 126/75/64 106/57/52
f 39/30/30 58/27/27 121/21/21
f 63/47/45 25/112/92 9/48/46
f 104/38/38 33/129/103 102/39/35
f 78/170/2 79/4/4 60/19/19
f 80/184/95 125/70/60 124/133/107
