# Blender v2.76 (sub 0) OBJ File: 'baking.blend'
# www.blender.org
mtllib ground.mtl
o LP_Mesh.379_Plane.001
v -2.453076 -0.010174 1.328447
v 2.839052 -0.018693 -1.221317
v -1.866128 0.005283 0.315367
v -1.356017 -0.009385 1.277651
v 1.133292 0.043134 1.579030
v 1.743130 0.029325 0.152984
v 2.839292 -0.023805 0.677672
v -1.733853 -0.026688 -3.113481
v -1.145385 -0.001800 -0.483544
v -0.011889 -0.007458 1.998738
v -1.919991 0.004652 2.080425
v 0.065785 0.047125 -1.543160
v -0.567441 -0.009255 -2.149733
v -1.955441 0.028970 -1.030971
v -2.402064 -0.008834 -1.741127
v 1.264083 -0.026095 2.885994
v 0.152263 -0.020880 -0.095310
v 0.900652 -0.009854 0.186088
v 0.634604 -0.003545 -1.538795
v -3.160544 -0.022124 2.886257
v -0.212192 0.033585 -0.766697
v 2.839454 -0.022080 2.886265
v 1.969151 -0.014108 2.255548
v 1.583886 -0.001665 -1.985765
v 0.572641 0.025742 -0.618200
v 2.839456 -0.022091 -3.113735
v -0.843991 0.035453 0.144811
v -3.160348 -0.026232 -3.113578
v 1.582876 0.001290 1.019355
v -0.171271 0.030206 0.840780
vt 0.688826 0.790570
vt 0.894873 0.854949
vt 0.631903 0.999972
vt 0.544405 0.817280
vt 0.000048 0.237778
vt 0.160656 0.432182
vt 0.000000 0.999997
vt 0.571492 0.215736
vt 0.347080 0.200851
vt 0.228757 0.126411
vt 0.000032 0.000029
vt 0.740354 0.117911
vt 0.852065 0.524776
vt 0.865669 0.206760
vt 0.999959 0.737438
vt 1.000000 0.000000
vt 1.000000 1.000000
vt 0.262473 0.632523
vt 0.261697 0.537723
vt 0.391121 0.491393
vt 0.187976 0.790737
vt 0.315400 0.999931
vt 0.543037 0.386094
vt 0.438347 0.335859
vt 0.415878 0.622198
vt 0.549959 0.676865
vt 0.503070 0.552133
vt 0.659037 0.498214
vt 0.782066 0.715642
vt 0.731887 0.300754
vn 0.022500 0.999700 -0.003000
vn 0.011300 0.999800 0.015100
vn 0.028100 0.999600 0.006200
vn 0.012300 0.999900 0.010800
vn -0.002000 0.999800 -0.019800
vn -0.006700 0.999700 -0.025400
vn 0.007100 0.999900 -0.009800
vn -0.019000 0.999800 0.006400
vn -0.045000 0.999000 0.008100
vn -0.029000 0.999500 -0.011000
vn -0.006700 0.999900 -0.008800
vn -0.014400 0.999900 -0.001300
vn -0.007100 0.999700 0.025300
vn -0.004600 1.000000 0.006900
vn 0.000700 0.999800 0.019200
vn -0.013200 0.999800 0.011400
vn 0.004800 1.000000 0.006000
vn 0.043600 0.996500 0.071300
vn 0.007300 0.999900 -0.012000
vn -0.003500 1.000000 0.001300
vn 0.008500 0.999900 -0.013900
vn 0.012800 0.999900 0.001200
vn -0.022200 0.999700 -0.004000
vn -0.011300 0.999800 -0.013800
vn -0.007800 0.999800 0.016800
vn -0.018900 0.999700 0.014600
vn 0.048500 0.998700 0.013900
vn 0.000400 1.000000 0.006000
vn 0.018400 0.999700 0.018500
vn -0.007900 0.999900 0.009000
usemtl GAMEPREV
s 1
f 29/1/1 23/2/2 7/3/3
f 29/1/1 7/3/3 6/4/4
f 8/5/5 13/6/6 26/7/7
f 3/8/8 14/9/9 15/10/10
f 28/11/11 1/12/12 15/10/10
f 10/13/13 11/14/14 16/15/15
f 11/14/14 1/12/12 20/16/16
f 28/11/11 20/16/16 1/12/12
f 11/14/14 20/16/16 16/15/15
f 22/17/17 7/3/3 23/2/2
f 23/2/2 16/15/15 22/17/17
f 19/18/18 12/19/19 21/20/20
f 24/21/21 26/7/7 13/6/6
f 24/21/21 2/22/22 26/7/7
f 21/20/20 12/19/19 13/6/6
f 27/23/23 9/24/24 3/8/8
f 15/10/10 1/12/12 3/8/8
f 3/8/8 9/24/24 14/9/9
f 13/6/6 8/5/5 14/9/9
f 13/6/6 14/9/9 9/24/24
f 8/5/5 15/10/10 14/9/9
f 8/5/5 28/11/11 15/10/10
f 19/18/18 25/25/25 24/21/21
f 6/4/4 24/21/21 25/25/25
f 18/26/26 6/4/4 25/25/25
f 7/3/3 2/22/22 24/21/21
f 24/21/21 6/4/4 7/3/3
f 17/27/27 25/25/25 21/20/20
f 17/27/27 18/26/26 25/25/25
f 27/23/23 30/28/28 21/20/20
f 30/28/28 17/27/27 21/20/20
f 21/20/20 9/24/24 27/23/23
f 9/24/24 21/20/20 13/6/6
f 25/25/25 19/18/18 21/20/20
f 24/21/21 13/6/6 12/19/19
f 24/21/21 12/19/19 19/18/18
f 18/26/26 29/1/1 6/4/4
f 5/29/29 23/2/2 29/1/1
f 5/29/29 10/13/13 23/2/2
f 23/2/2 10/13/13 16/15/15
f 29/1/1 30/28/28 5/29/29
f 30/28/28 10/13/13 5/29/29
f 18/26/26 30/28/28 29/1/1
f 18/26/26 17/27/27 30/28/28
f 4/30/30 10/13/13 30/28/28
f 10/13/13 4/30/30 11/14/14
f 11/14/14 4/30/30 1/12/12
f 3/8/8 4/30/30 27/23/23
f 27/23/23 4/30/30 30/28/28
f 3/8/8 1/12/12 4/30/30
