# Blender v2.80 (sub 75) OBJ File: ''
# www.blender.org
mtllib pillar.mtl
o Circle_Circle.001
v 0.000000 0.000000 -1.000000
v -0.195090 0.000000 -0.980785
v -0.382683 0.000000 -0.923880
v -0.555570 0.000000 -0.831470
v -0.707107 0.000000 -0.707107
v -0.831470 0.000000 -0.555570
v -0.923880 0.000000 -0.382683
v -0.980785 0.000000 -0.195090
v -1.000000 0.000000 -0.000000
v -0.980785 0.000000 0.195090
v -0.923880 0.000000 0.382683
v -0.831470 0.000000 0.555570
v -0.707107 0.000000 0.707107
v -0.555570 0.000000 0.831470
v -0.382683 0.000000 0.923880
v -0.195090 0.000000 0.980785
v 0.000000 0.000000 1.000000
v 0.195091 0.000000 0.980785
v 0.382684 0.000000 0.923879
v 0.555571 0.000000 0.831469
v 0.707107 0.000000 0.707106
v 0.831470 0.000000 0.555570
v 0.923880 0.000000 0.382683
v 0.980785 0.000000 0.195089
v 1.000000 0.000000 -0.000001
v 0.980785 0.000000 -0.195091
v 0.923879 0.000000 -0.382684
v 0.831469 0.000000 -0.555571
v 0.707106 0.000000 -0.707108
v 0.555569 0.000000 -0.831470
v 0.382682 0.000000 -0.923880
v 0.195089 0.000000 -0.980786
v 0.000000 10.000000 -1.000000
v -0.195090 10.000000 -0.980785
v -0.382683 10.000000 -0.923880
v -0.555570 10.000000 -0.831470
v -0.707107 10.000000 -0.707107
v -0.831470 10.000000 -0.555570
v -0.923880 10.000000 -0.382683
v -0.980785 10.000000 -0.195090
v -1.000000 10.000000 -0.000000
v -0.980785 10.000000 0.195090
v -0.923880 10.000000 0.382683
v -0.831470 10.000000 0.555570
v -0.707107 10.000000 0.707107
v -0.555570 10.000000 0.831470
v -0.382683 10.000000 0.923880
v -0.195090 10.000000 0.980785
v 0.000000 10.000000 1.000000
v 0.195091 10.000000 0.980785
v 0.382684 10.000000 0.923879
v 0.555571 10.000000 0.831469
v 0.707107 10.000000 0.707106
v 0.831470 10.000000 0.555570
v 0.923880 10.000000 0.382683
v 0.980785 10.000000 0.195089
v 1.000000 10.000000 -0.000001
v 0.980785 10.000000 -0.195091
v 0.923879 10.000000 -0.382684
v 0.831469 10.000000 -0.555571
v 0.707106 10.000000 -0.707108
v 0.555569 10.000000 -0.831470
v 0.382682 10.000000 -0.923880
v 0.195089 10.000000 -0.980786
vt 0.000000 0.000000
vt 0.000000 0.000000
vt 0.000000 0.000000
vt 0.000000 0.000000
vt 0.000000 0.000000
vt 0.000000 0.000000
vt 0.000000 0.000000
vt 0.000000 0.000000
vt 0.000000 0.000000
vt 0.000000 0.000000
vt 0.000000 0.000000
vt 0.000000 0.000000
vt 0.000000 0.000000
vt 0.000000 0.000000
vt 0.000000 0.000000
vt 0.000000 0.000000
vt 0.000000 0.000000
vt 0.000000 0.000000
vt 0.000000 0.000000
vt 0.000000 0.000000
vt 0.000000 0.000000
vt 0.000000 0.000000
vt 0.000000 0.000000
vt 0.000000 0.000000
vt 0.000000 0.000000
vt 0.000000 0.000000
vt 0.000000 0.000000
vt 0.000000 0.000000
vt 0.000000 0.000000
vt 0.000000 0.000000
vt 0.000000 0.000000
vt 0.000000 0.000000
vt 0.000000 0.000000
vt 0.000000 0.000000
vt 0.000000 0.000000
vt 0.000000 0.000000
vt 0.000000 0.000000
vt 0.000000 0.000000
vt 0.000000 0.000000
vt 0.000000 0.000000
vt 0.000000 0.000000
vt 0.000000 0.000000
vt 0.000000 0.000000
vt 0.000000 0.000000
vt 0.000000 0.000000
vt 0.000000 0.000000
vt 0.000000 0.000000
vt 0.000000 0.000000
vt 0.000000 0.000000
vt 0.000000 0.000000
vt 0.000000 0.000000
vt 0.000000 0.000000
vt 0.000000 0.000000
vt 0.000000 0.000000
vt 0.000000 0.000000
vt 0.000000 0.000000
vt 0.000000 0.000000
vt 0.000000 0.000000
vt 0.000000 0.000000
vt 0.000000 0.000000
vt 0.000000 0.000000
vt 0.000000 0.000000
vt 0.000000 0.000000
vt 0.000000 0.000000
vn -0.1951 0.0000 -0.9808
vn 0.0000 0.0000 -1.0000
vn 0.7071 0.0000 -0.7071
vn 0.8314 0.0000 -0.5556
vn -0.1951 0.0000 0.9808
vn -0.3827 0.0000 0.9239
vn -0.3827 0.0000 -0.9239
vn 0.5556 0.0000 -0.8314
vn 0.0000 0.0000 1.0000
vn -0.5556 0.0000 -0.8314
vn 0.3827 0.0000 -0.9239
vn 0.1951 0.0000 0.9808
vn -0.7071 0.0000 -0.7071
vn 0.1951 0.0000 -0.9808
vn 0.3827 0.0000 0.9239
vn -0.8314 0.0000 -0.5556
vn 0.5556 0.0000 0.8314
vn -0.9239 0.0000 -0.3827
vn 0.7071 0.0000 0.7071
vn -0.9808 0.0000 -0.1951
vn 0.8314 0.0000 0.5556
vn -1.0000 0.0000 0.0000
vn 0.9239 0.0000 0.3827
vn -0.9808 0.0000 0.1951
vn 0.9808 0.0000 0.1951
vn -0.9239 0.0000 0.3827
vn 1.0000 0.0000 0.0000
vn -0.8314 0.0000 0.5556
vn 0.9808 0.0000 -0.1951
vn -0.7071 0.0000 0.7071
vn 0.9239 0.0000 -0.3827
vn -0.5556 0.0000 0.8314
usemtl None
s 1
f 2/1/1 34/2/1 33/3/2 1/4/2
f 29/5/3 61/6/3 60/7/4 28/8/4
f 16/9/5 48/10/5 47/11/6 15/12/6
f 3/13/7 35/14/7 34/2/1 2/1/1
f 30/15/8 62/16/8 61/6/3 29/5/3
f 17/17/9 49/18/9 48/10/5 16/9/5
f 4/19/10 36/20/10 35/14/7 3/13/7
f 31/21/11 63/22/11 62/16/8 30/15/8
f 18/23/12 50/24/12 49/18/9 17/17/9
f 5/25/13 37/26/13 36/20/10 4/19/10
f 32/27/14 64/28/14 63/22/11 31/21/11
f 19/29/15 51/30/15 50/24/12 18/23/12
f 6/31/16 38/32/16 37/26/13 5/25/13
f 1/4/2 33/3/2 64/28/14 32/27/14
f 20/33/17 52/34/17 51/30/15 19/29/15
f 7/35/18 39/36/18 38/32/16 6/31/16
f 21/37/19 53/38/19 52/34/17 20/33/17
f 8/39/20 40/40/20 39/36/18 7/35/18
f 22/41/21 54/42/21 53/38/19 21/37/19
f 9/43/22 41/44/22 40/40/20 8/39/20
f 23/45/23 55/46/23 54/42/21 22/41/21
f 10/47/24 42/48/24 41/44/22 9/43/22
f 24/49/25 56/50/25 55/46/23 23/45/23
f 11/51/26 43/52/26 42/48/24 10/47/24
f 25/53/27 57/54/27 56/50/25 24/49/25
f 12/55/28 44/56/28 43/52/26 11/51/26
f 26/57/29 58/58/29 57/54/27 25/53/27
f 13/59/30 45/60/30 44/56/28 12/55/28
f 27/61/31 59/62/31 58/58/29 26/57/29
f 14/63/32 46/64/32 45/60/30 13/59/30
f 28/8/4 60/7/4 59/62/31 27/61/31
f 15/12/6 47/11/6 46/64/32 14/63/32
