# Blender v2.80 (sub 75) OBJ File: ''
# www.blender.org
mtllib spikes.mtl
o Plane.002
v -3.000000 -0.000000 3.000000
v 3.000000 -0.000000 3.000000
v 3.000000 0.000000 -3.000000
v -3.000000 0.000000 -3.000000
v 2.698178 -0.000000 0.147847
v 2.630455 0.882613 0.307655
v 2.734991 -0.000000 0.446209
v 2.458195 -0.000000 0.328909
v -0.224549 0.000000 -0.636674
v -0.292273 0.882613 -0.476866
v -0.187737 0.000000 -0.338312
v -0.464532 0.000000 -0.455613
v -0.693724 -0.000000 0.693936
v -0.761447 0.882613 0.853744
v -0.656911 -0.000000 0.992298
v -0.933707 -0.000000 0.874998
v 1.721372 -0.000000 1.393853
v 1.653649 0.882613 1.553661
v 1.758185 -0.000000 1.692215
v 1.481389 -0.000000 1.574914
v 0.636886 -0.000000 0.886221
v 0.569163 0.882613 1.046029
v 0.673699 -0.000000 1.184583
v 0.396904 -0.000000 1.067282
v -0.067645 0.000000 -1.878833
v -0.135368 0.882613 -1.719026
v -0.030832 0.000000 -1.580471
v -0.307628 0.000000 -1.697772
v -2.378138 -0.000000 1.016975
v -2.445862 0.882613 1.176782
v -2.341326 -0.000000 1.315337
v -2.618121 -0.000000 1.198036
v 0.767640 -0.000000 1.901484
v 0.699916 0.882613 2.061292
v 0.804452 -0.000000 2.199846
v 0.527657 -0.000000 2.082546
v -1.778210 -0.000000 2.063004
v -1.845933 0.882613 2.222811
v -1.741397 -0.000000 2.361366
v -2.018193 -0.000000 2.244065
v -1.901272 -0.000000 0.224762
v -1.968996 0.882613 0.384569
v -1.864460 -0.000000 0.523124
v -2.141255 -0.000000 0.405823
v -2.581191 0.000000 -1.845761
v -2.648914 0.882613 -1.685953
v -2.544378 0.000000 -1.547399
v -2.821174 0.000000 -1.664699
v 2.059793 0.000000 -1.698086
v 1.992070 0.882613 -1.538278
v 2.096606 0.000000 -1.399724
v 1.819810 0.000000 -1.517024
v 2.528968 0.000000 -2.613361
v 2.461245 0.882613 -2.453553
v 2.565781 0.000000 -2.314999
v 2.288985 0.000000 -2.432300
v 0.561511 0.000000 -2.151878
v 0.493787 0.882613 -1.992070
v 0.598323 0.000000 -1.853516
v 0.321528 0.000000 -1.970816
v -1.875890 0.000000 -1.236602
v -1.943614 0.882613 -1.076794
v -1.839078 0.000000 -0.938240
v -2.115874 0.000000 -1.055541
v 2.682796 0.000000 -0.713588
v 2.615072 0.882613 -0.553780
v 2.719608 0.000000 -0.415226
v 2.442813 0.000000 -0.532526
v 0.421527 -0.000000 0.100930
v 0.353804 0.882613 0.260738
v 0.458340 -0.000000 0.399292
v 0.181544 -0.000000 0.281992
v 2.713561 -0.000000 0.993900
v 2.645838 0.882613 1.153708
v 2.750374 -0.000000 1.292263
v 2.473578 -0.000000 1.174962
v 2.613573 -0.000000 2.309128
v 2.545850 0.882613 2.468936
v 2.650386 -0.000000 2.607490
v 2.373590 -0.000000 2.490190
v -0.309155 -0.000000 2.324511
v -0.376878 0.882613 2.484319
v -0.272342 -0.000000 2.622873
v -0.549138 -0.000000 2.505572
v -0.804480 -0.000000 1.739196
v -0.872204 0.882613 1.899004
v -0.767668 -0.000000 2.037558
v -1.044463 -0.000000 1.920257
v -1.447481 -0.000000 1.255408
v -1.515204 0.882613 1.415215
v -1.410668 -0.000000 1.553770
v -1.687464 -0.000000 1.436469
v -0.324538 -0.000000 0.132465
v -0.392262 0.882613 0.292273
v -0.287725 -0.000000 0.430827
v -0.564521 -0.000000 0.313526
v -2.601189 0.000000 -0.828959
v -2.668912 0.882613 -0.669151
v -2.564376 0.000000 -0.530597
v -2.841172 0.000000 -0.647897
v -1.839741 0.000000 -2.067273
v -1.907465 0.882613 -1.907465
v -1.802928 0.000000 -1.768911
v -2.079724 0.000000 -1.886211
v 0.906085 0.000000 -1.367356
v 0.838361 0.882613 -1.207548
v 0.942897 0.000000 -1.068994
v 0.666102 0.000000 -1.186295
v -0.809095 0.000000 -1.236603
v -0.876819 0.882613 -1.076795
v -0.772283 0.000000 -0.938240
v -1.049078 0.000000 -1.055541
v 1.736755 0.000000 -2.621053
v 1.669031 0.882613 -2.461245
v 1.773567 0.000000 -2.322691
v 1.496772 0.000000 -2.439991
v 1.382951 0.000000 -1.905754
v 1.315227 0.882613 -1.745946
v 1.419763 0.000000 -1.607392
v 1.142968 0.000000 -1.724692
v -0.393760 0.000000 -2.636436
v -0.461484 0.882613 -2.476628
v -0.356948 0.000000 -2.338073
v -0.633743 0.000000 -2.455374
v -2.641953 0.000000 -2.894866
v -2.709677 0.882613 -2.735058
v -2.605141 0.000000 -2.596504
v -2.881936 0.000000 -2.713805
v -0.985997 0.000000 -0.175191
v -1.053721 0.882613 -0.015383
v -0.949185 -0.000000 0.123171
v -1.225980 -0.000000 0.005871
v -2.616571 -0.000000 2.078386
v -2.684295 0.882613 2.238194
v -2.579759 -0.000000 2.376748
v -2.856555 -0.000000 2.259448
v -0.209167 -0.000000 1.255408
v -0.276891 0.882613 1.415215
v -0.172354 -0.000000 1.553770
v -0.449150 -0.000000 1.436469
v 1.567544 -0.000000 2.301436
v 1.499820 0.882613 2.461244
v 1.604356 -0.000000 2.599798
v 1.327561 -0.000000 2.482498
v 1.475247 -0.000000 0.747776
v 1.407524 0.882613 0.907583
v 1.512060 -0.000000 1.046138
v 1.235264 -0.000000 0.928837
v 0.748411 0.000000 -0.668209
v 0.680688 0.882613 -0.508401
v 0.785224 0.000000 -0.369847
v 0.508428 0.000000 -0.487147
v -1.455172 -0.000000 0.570874
v -1.522895 0.882613 0.730682
v -1.418359 -0.000000 0.869236
v -1.695155 -0.000000 0.751936
v 2.705870 0.000000 -1.621172
v 2.638146 0.882613 -1.461364
v 2.742682 0.000000 -1.322810
v 2.465887 0.000000 -1.440110
v 1.667532 0.000000 -0.890490
v 1.599809 0.882613 -0.730682
v 1.704345 0.000000 -0.592128
v 1.427549 0.000000 -0.709428
v -0.970614 0.000000 -1.905753
v -1.038338 0.882613 -1.745945
v -0.933802 0.000000 -1.607391
v -1.210597 0.000000 -1.724692
v -1.085985 0.000000 -2.874868
v -1.153708 0.882613 -2.715060
v -1.049172 0.000000 -2.576506
v -1.325968 0.000000 -2.693807
v -1.229045 0.000000 -0.731278
v -1.296769 0.882613 -0.571470
v -1.192233 0.000000 -0.432916
v -1.469028 0.000000 -0.550217
v -2.590420 -0.000000 0.197073
v -2.658144 0.882613 0.356880
v -2.553608 -0.000000 0.495435
v -2.830404 -0.000000 0.378134
v 2.413598 -0.000000 1.709200
v 2.345873 0.882613 1.869007
v 2.450409 -0.000000 2.007562
v 2.173614 -0.000000 1.890261
v 1.109138 0.000000 -0.193650
v 1.041414 0.882613 -0.033842
v 1.145950 -0.000000 0.104712
v 0.869154 0.000000 -0.012589
v 0.067724 0.000000 -1.213528
v 0.000000 0.882613 -1.053720
v 0.104536 0.000000 -0.915166
v -0.172260 0.000000 -1.032467
v 1.067604 0.000000 -2.805646
v 0.999880 0.882613 -2.645838
v 1.104416 0.000000 -2.507284
v 0.827621 0.000000 -2.624584
v 1.878277 -0.000000 0.252451
v 1.810553 0.882613 0.412258
v 1.915089 -0.000000 0.550813
v 1.638293 -0.000000 0.433512
v 2.039796 0.000000 -0.401317
v 1.972072 0.882613 -0.241510
v 2.076608 0.000000 -0.102955
v 1.799812 0.000000 -0.220256
v -1.052143 -0.000000 2.452188
v -1.119867 0.882613 2.611996
v -1.015331 -0.000000 2.750550
v -1.292126 -0.000000 2.633250
v -2.182777 -0.000000 1.575370
v -2.250501 0.882613 1.735177
v -2.145965 -0.000000 1.873732
v -2.422760 -0.000000 1.756431
v 0.240011 0.000000 -2.824105
v 0.172287 0.882613 -2.664297
v 0.276823 0.000000 -2.525743
v 0.000027 0.000000 -2.643043
v 0.624580 -0.000000 2.413731
v 0.556856 0.882613 2.573539
v 0.661392 -0.000000 2.712094
v 0.384597 -0.000000 2.594793
v 1.086064 -0.000000 1.290788
v 1.018339 0.882613 1.450596
v 1.122875 -0.000000 1.589151
v 0.846080 -0.000000 1.471850
v 0.024652 -0.000000 0.613946
v -0.043072 0.882613 0.773754
v 0.061464 -0.000000 0.912309
v -0.215332 -0.000000 0.795008
v 2.504249 0.000000 -1.815059
v 2.399714 0.882613 -1.953613
v 2.227454 0.000000 -1.932359
v 2.467437 0.000000 -2.113421
v 2.885849 0.000000 -2.916401
v 2.818124 0.882613 -2.756594
v 2.922660 0.000000 -2.618039
v 2.645865 0.000000 -2.735340
v -1.936653 0.000000 -0.409009
v -2.004377 0.882613 -0.249201
v -1.899841 0.000000 -0.110646
v -2.176636 0.000000 -0.227947
v -1.902811 0.000000 -2.721040
v -1.970535 0.882613 -2.561233
v -1.865999 0.000000 -2.422678
v -2.142794 0.000000 -2.539979
v 2.193624 -0.000000 0.975441
v 2.125900 0.882613 1.135249
v 2.230436 -0.000000 1.273803
v 1.953640 -0.000000 1.156503
v 2.270538 0.000000 -1.108925
v 2.202813 0.882613 -0.949118
v 2.307349 0.000000 -0.810563
v 2.030554 0.000000 -0.927864
v 0.129254 -0.000000 1.832262
v 0.061531 0.882613 1.992070
v 0.166067 -0.000000 2.130624
v -0.110729 -0.000000 2.013323
v 1.029147 -0.000000 0.447812
v 0.961423 0.882613 0.607620
v 1.065959 -0.000000 0.746174
v 0.789164 -0.000000 0.628873
vt -0.020466 1.014978
vt 0.979534 1.014978
vt 0.979534 0.014978
vt -0.020466 0.014978
vt 0.451220 0.539619
vt 0.598322 0.566254
vt 0.451220 0.589346
vt 0.935366 0.451220
vt 0.917943 0.598322
vt 0.889233 0.451220
vt 0.929231 0.451220
vt 0.451220 0.408866
vt 0.598322 0.435501
vt 0.451220 0.458593
vt 0.448245 0.451220
vt 0.430822 0.598322
vt 0.402112 0.451220
vt 0.442109 0.451220
vt 0.451220 0.630634
vt 0.598322 0.657269
vt 0.451220 0.680361
vt 0.370049 0.451220
vt 0.352626 0.598322
vt 0.323916 0.451220
vt 0.363914 0.451220
vt 0.451220 0.747287
vt 0.598322 0.773922
vt 0.451220 0.797014
vt 0.772565 0.451220
vt 0.755142 0.598322
vt 0.726432 0.451220
vt 0.766430 0.451220
vt 0.451220 0.662682
vt 0.598322 0.689316
vt 0.451220 0.712409
vt 0.591817 0.451220
vt 0.574395 0.598322
vt 0.545685 0.451220
vt 0.585682 0.451220
vt 0.451220 0.201839
vt 0.598322 0.228474
vt 0.451220 0.251566
vt 0.474396 0.451220
vt 0.456973 0.598322
vt 0.428263 0.451220
vt 0.468260 0.451220
vt 0.451220 0.684474
vt 0.598322 0.711109
vt 0.451220 0.734201
vt 0.089313 0.451220
vt 0.071890 0.598322
vt 0.043181 0.451220
vt 0.083178 0.451220
vt 0.451220 0.831892
vt 0.598322 0.858527
vt 0.451220 0.881619
vt 0.613609 0.451220
vt 0.596187 0.598322
vt 0.567477 0.451220
vt 0.607474 0.451220
vt 0.451220 0.858812
vt 0.598322 0.885447
vt 0.451220 0.908539
vt 0.189301 0.451220
vt 0.171879 0.598322
vt 0.143169 0.451220
vt 0.183166 0.451220
vt 0.451220 0.552439
vt 0.598322 0.579073
vt 0.451220 0.602166
vt 0.168791 0.451220
vt 0.151368 0.598322
vt 0.122658 0.451220
vt 0.162655 0.451220
vt 0.451220 0.207351
vt 0.598322 0.233986
vt 0.451220 0.257078
vt 0.055471 0.451220
vt 0.038048 0.598322
vt 0.009338 0.451220
vt 0.049336 0.451220
vt 0.451220 0.231964
vt 0.598322 0.258599
vt 0.451220 0.281691
vt 0.828969 0.451220
vt 0.811546 0.598322
vt 0.782836 0.451220
vt 0.822833 0.451220
vt 0.451220 0.079418
vt 0.598322 0.106053
vt 0.451220 0.129145
vt 0.907164 0.451220
vt 0.889742 0.598322
vt 0.861032 0.451220
vt 0.901029 0.451220
vt 0.451220 0.156332
vt 0.598322 0.182967
vt 0.451220 0.206059
vt 0.579255 0.451220
vt 0.561832 0.598322
vt 0.533122 0.451220
vt 0.573119 0.451220
vt 0.451220 0.308878
vt 0.598322 0.335513
vt 0.451220 0.358605
vt 0.173021 0.451220
vt 0.155598 0.598322
vt 0.126888 0.451220
vt 0.166886 0.451220
vt 0.451220 0.396047
vt 0.598322 0.422682
vt 0.451220 0.445774
vt 0.932802 0.451220
vt 0.915380 0.598322
vt 0.886670 0.451220
vt 0.926667 0.451220
vt 0.451220 0.531800
vt 0.598322 0.558435
vt 0.451220 0.581527
vt 0.555924 0.451220
vt 0.538502 0.598322
vt 0.509791 0.451220
vt 0.549789 0.451220
vt 0.451220 0.680628
vt 0.598322 0.707263
vt 0.451220 0.730356
vt 0.937930 0.451220
vt 0.920507 0.598322
vt 0.891797 0.451220
vt 0.931794 0.451220
vt 0.451220 0.899833
vt 0.598322 0.926468
vt 0.451220 0.949560
vt 0.921265 0.451220
vt 0.903843 0.598322
vt 0.875133 0.451220
vt 0.915130 0.451220
vt 0.451220 0.902397
vt 0.598322 0.929031
vt 0.451220 0.952124
vt 0.434144 0.451220
vt 0.416721 0.598322
vt 0.388011 0.451220
vt 0.428008 0.451220
vt 0.451220 0.804844
vt 0.598322 0.831479
vt 0.451220 0.854571
vt 0.351590 0.451220
vt 0.334167 0.598322
vt 0.305457 0.451220
vt 0.345454 0.451220
vt 0.451220 0.724213
vt 0.598322 0.750847
vt 0.451220 0.773940
vt 0.244423 0.451220
vt 0.227000 0.598322
vt 0.198290 0.451220
vt 0.238287 0.451220
vt 0.451220 0.537056
vt 0.598322 0.563690
vt 0.451220 0.586783
vt 0.431580 0.451220
vt 0.414157 0.598322
vt 0.385447 0.451220
vt 0.425444 0.451220
vt 0.451220 0.376818
vt 0.598322 0.403453
vt 0.451220 0.426545
vt 0.052138 0.451220
vt 0.034715 0.598322
vt 0.006005 0.451220
vt 0.046003 0.451220
vt 0.451220 0.170433
vt 0.598322 0.197067
vt 0.451220 0.220160
vt 0.179046 0.451220
vt 0.161623 0.598322
vt 0.132913 0.451220
vt 0.172911 0.451220
vt 0.451220 0.287086
vt 0.598322 0.313720
vt 0.451220 0.336813
vt 0.636684 0.451220
vt 0.619261 0.598322
vt 0.590551 0.451220
vt 0.630548 0.451220
vt 0.451220 0.308878
vt 0.598322 0.335512
vt 0.451220 0.358605
vt 0.350820 0.451220
vt 0.333398 0.598322
vt 0.304688 0.451220
vt 0.344685 0.451220
vt 0.451220 0.078136
vt 0.598322 0.104771
vt 0.451220 0.127863
vt 0.775129 0.451220
vt 0.757706 0.598322
vt 0.728996 0.451220
vt 0.768993 0.451220
vt 0.451220 0.197353
vt 0.598322 0.223987
vt 0.451220 0.247080
vt 0.716161 0.451220
vt 0.698739 0.598322
vt 0.670029 0.451220
vt 0.710026 0.451220
vt 0.451220 0.075572
vt 0.598322 0.102207
vt 0.451220 0.125299
vt 0.420043 0.451220
vt 0.402620 0.598322
vt 0.373910 0.451220
vt 0.413907 0.451220
vt 0.451220 0.032501
vt 0.598322 0.059135
vt 0.451220 0.082228
vt 0.045344 0.451220
vt 0.027921 0.598322
vt -0.000789 0.451220
vt 0.039209 0.451220
vt 0.451220 0.485780
vt 0.598322 0.512414
vt 0.451220 0.535507
vt 0.321337 0.451220
vt 0.303914 0.598322
vt 0.275204 0.451220
vt 0.315201 0.451220
vt 0.451220 0.861376
vt 0.598322 0.888011
vt 0.451220 0.911103
vt 0.049574 0.451220
vt 0.032152 0.598322
vt 0.003442 0.451220
vt 0.043439 0.451220
vt 0.451220 0.724213
vt 0.598322 0.750847
vt 0.451220 0.773940
vt 0.450808 0.451220
vt 0.433386 0.598322
vt 0.404676 0.451220
vt 0.444673 0.451220
vt 0.451220 0.898551
vt 0.598322 0.925186
vt 0.451220 0.948278
vt 0.746927 0.451220
vt 0.729504 0.598322
vt 0.700794 0.451220
vt 0.740791 0.451220
vt 0.451220 0.639608
vt 0.598322 0.666242
vt 0.451220 0.689335
vt 0.731544 0.451220
vt 0.714122 0.598322
vt 0.685412 0.451220
vt 0.725409 0.451220
vt 0.451220 0.403610
vt 0.598322 0.430245
vt 0.451220 0.453337
vt 0.610405 0.451220
vt 0.592982 0.598322
vt 0.564272 0.451220
vt 0.604269 0.451220
vt 0.451220 0.610124
vt 0.598322 0.636759
vt 0.451220 0.659851
vt 0.243141 0.451220
vt 0.225718 0.598322
vt 0.197008 0.451220
vt 0.237006 0.451220
vt 0.451220 0.244783
vt 0.598322 0.271418
vt 0.451220 0.294510
vt 0.936648 0.451220
vt 0.919225 0.598322
vt 0.890515 0.451220
vt 0.930512 0.451220
vt 0.451220 0.366563
vt 0.598322 0.393198
vt 0.451220 0.416290
vt 0.763592 0.451220
vt 0.746169 0.598322
vt 0.717459 0.451220
vt 0.757456 0.451220
vt 0.451220 0.197353
vt 0.598322 0.223987
vt 0.451220 0.247080
vt 0.323900 0.451220
vt 0.306478 0.598322
vt 0.277768 0.451220
vt 0.317765 0.451220
vt 0.451220 0.035834
vt 0.598322 0.062468
vt 0.451220 0.085561
vt 0.304672 0.451220
vt 0.287250 0.598322
vt 0.258539 0.451220
vt 0.298537 0.451220
vt 0.451220 0.393099
vt 0.598322 0.419733
vt 0.451220 0.442826
vt 0.280829 0.451220
vt 0.263406 0.598322
vt 0.234696 0.451220
vt 0.274693 0.451220
vt 0.451220 0.547824
vt 0.598322 0.574458
vt 0.451220 0.597551
vt 0.053933 0.451220
vt 0.036510 0.598322
vt 0.007800 0.451220
vt 0.047797 0.451220
vt 0.451220 0.799845
vt 0.598322 0.826479
vt 0.451220 0.849572
vt 0.887936 0.451220
vt 0.870513 0.598322
vt 0.841803 0.451220
vt 0.881801 0.451220
vt 0.451220 0.482703
vt 0.598322 0.509338
vt 0.451220 0.532430
vt 0.670526 0.451220
vt 0.653103 0.598322
vt 0.624393 0.451220
vt 0.664391 0.451220
vt 0.451220 0.312724
vt 0.598322 0.339358
vt 0.451220 0.362451
vt 0.496957 0.451220
vt 0.479534 0.598322
vt 0.450824 0.451220
vt 0.490822 0.451220
vt 0.451220 0.047371
vt 0.598322 0.074005
vt 0.451220 0.097098
vt 0.663604 0.451220
vt 0.646181 0.598322
vt 0.617471 0.451220
vt 0.657468 0.451220
vt 0.451220 0.557053
vt 0.598322 0.583688
vt 0.451220 0.606780
vt 0.798716 0.451220
vt 0.781293 0.598322
vt 0.752583 0.451220
vt 0.792580 0.451220
vt 0.451220 0.448092
vt 0.598322 0.474727
vt 0.451220 0.497819
vt 0.825635 0.451220
vt 0.808213 0.598322
vt 0.779503 0.451220
vt 0.819500 0.451220
vt 0.451220 0.923676
vt 0.598322 0.950311
vt 0.451220 0.973403
vt 0.310312 0.451220
vt 0.292890 0.598322
vt 0.264180 0.451220
vt 0.304177 0.451220
vt 0.451220 0.777540
vt 0.598322 0.804174
vt 0.451220 0.827267
vt 0.121873 0.451220
vt 0.104451 0.598322
vt 0.075741 0.451220
vt 0.115738 0.451220
vt 0.451220 0.044294
vt 0.598322 0.070929
vt 0.451220 0.094021
vt 0.525671 0.451220
vt 0.508249 0.598322
vt 0.479539 0.451220
vt 0.519536 0.451220
vt 0.451220 0.917267
vt 0.598322 0.943901
vt 0.451220 0.966994
vt 0.589766 0.451220
vt 0.572343 0.598322
vt 0.543634 0.451220
vt 0.583631 0.451220
vt 0.451220 0.730110
vt 0.598322 0.756744
vt 0.451220 0.779837
vt 0.666680 0.451220
vt 0.649257 0.598322
vt 0.620548 0.451220
vt 0.660545 0.451220
vt 0.451220 0.617303
vt 0.598322 0.643937
vt 0.451220 0.667030
vt 0.489778 0.451220
vt 0.472355 0.598322
vt 0.443646 0.451220
vt 0.483643 0.451220
vt 0.896909 0.451220
vt 0.879487 0.598322
vt 0.850776 0.451220
vt 0.451220 0.162741
vt 0.598322 0.189376
vt 0.451220 0.212468
vt 0.890774 0.451220
vt 0.451220 0.028911
vt 0.598322 0.055546
vt 0.451220 0.078638
vt 0.966644 0.451220
vt 0.949221 0.598322
vt 0.920512 0.451220
vt 0.960509 0.451220
vt 0.451220 0.446810
vt 0.598322 0.473445
vt 0.451220 0.496537
vt 0.162894 0.451220
vt 0.145471 0.598322
vt 0.116761 0.451220
vt 0.156759 0.451220
vt 0.451220 0.061472
vt 0.598322 0.088106
vt 0.451220 0.111199
vt 0.168534 0.451220
vt 0.151112 0.598322
vt 0.122402 0.451220
vt 0.162399 0.451220
vt 0.451220 0.677552
vt 0.598322 0.704186
vt 0.451220 0.727279
vt 0.851274 0.451220
vt 0.833851 0.598322
vt 0.805141 0.451220
vt 0.845138 0.451220
vt 0.451220 0.330157
vt 0.598322 0.356792
vt 0.451220 0.379884
vt 0.864092 0.451220
vt 0.846670 0.598322
vt 0.817960 0.451220
vt 0.857957 0.451220
vt 0.451220 0.820355
vt 0.598322 0.846990
vt 0.451220 0.870082
vt 0.507212 0.451220
vt 0.489789 0.598322
vt 0.461079 0.451220
vt 0.501077 0.451220
vt 0.451220 0.589614
vt 0.598322 0.616248
vt 0.451220 0.639341
vt 0.657194 0.451220
vt 0.639771 0.598322
vt 0.611062 0.451220
vt 0.651059 0.451220
vn 0.0000 1.0000 0.0000
vn 0.3829 0.1930 -0.9034
vn 0.5910 0.1930 0.7833
vn -0.9738 0.1930 0.1202
vn -0.9738 0.1930 0.1201
usemtl Material.002
s 1
f 1/1/1 2/2/1 3/3/1 4/4/1
f 5/5/2 6/6/1 7/7/3
f 7/8/3 6/9/1 8/10/4
f 8/10/4 6/9/1 5/11/2
f 9/12/2 10/13/1 11/14/3
f 11/15/3 10/16/1 12/17/4
f 12/17/4 10/16/1 9/18/2
f 13/19/2 14/20/1 15/21/3
f 15/22/3 14/23/1 16/24/4
f 16/24/4 14/23/1 13/25/2
f 17/26/2 18/27/1 19/28/3
f 19/29/3 18/30/1 20/31/4
f 20/31/4 18/30/1 17/32/2
f 21/33/2 22/34/1 23/35/3
f 23/36/3 22/37/1 24/38/4
f 24/38/4 22/37/1 21/39/2
f 25/40/2 26/41/1 27/42/3
f 27/43/3 26/44/1 28/45/4
f 28/45/4 26/44/1 25/46/2
f 29/47/2 30/48/1 31/49/3
f 31/50/3 30/51/1 32/52/4
f 32/52/4 30/51/1 29/53/2
f 33/54/2 34/55/1 35/56/3
f 35/57/3 34/58/1 36/59/4
f 36/59/4 34/58/1 33/60/2
f 37/61/2 38/62/1 39/63/3
f 39/64/3 38/65/1 40/66/4
f 40/66/4 38/65/1 37/67/2
f 41/68/2 42/69/1 43/70/3
f 43/71/3 42/72/1 44/73/4
f 44/73/4 42/72/1 41/74/2
f 45/75/2 46/76/1 47/77/3
f 47/78/3 46/79/1 48/80/4
f 48/80/4 46/79/1 45/81/2
f 49/82/2 50/83/1 51/84/3
f 51/85/3 50/86/1 52/87/4
f 52/87/4 50/86/1 49/88/2
f 53/89/2 54/90/1 55/91/3
f 55/92/3 54/93/1 56/94/5
f 56/94/5 54/93/1 53/95/2
f 57/96/2 58/97/1 59/98/3
f 59/99/3 58/100/1 60/101/4
f 60/101/4 58/100/1 57/102/2
f 61/103/2 62/104/1 63/105/3
f 63/106/3 62/107/1 64/108/4
f 64/108/4 62/107/1 61/109/2
f 65/110/2 66/111/1 67/112/3
f 67/113/3 66/114/1 68/115/4
f 68/115/4 66/114/1 65/116/2
f 69/117/2 70/118/1 71/119/3
f 71/120/3 70/121/1 72/122/4
f 72/122/4 70/121/1 69/123/2
f 73/124/2 74/125/1 75/126/3
f 75/127/3 74/128/1 76/129/4
f 76/129/4 74/128/1 73/130/2
f 77/131/2 78/132/1 79/133/3
f 79/134/3 78/135/1 80/136/4
f 80/136/4 78/135/1 77/137/2
f 81/138/2 82/139/1 83/140/3
f 83/141/3 82/142/1 84/143/4
f 84/143/4 82/142/1 81/144/2
f 85/145/2 86/146/1 87/147/3
f 87/148/3 86/149/1 88/150/5
f 88/150/5 86/149/1 85/151/2
f 89/152/2 90/153/1 91/154/3
f 91/155/3 90/156/1 92/157/4
f 92/157/4 90/156/1 89/158/2
f 93/159/2 94/160/1 95/161/3
f 95/162/3 94/163/1 96/164/4
f 96/164/4 94/163/1 93/165/2
f 97/166/2 98/167/1 99/168/3
f 99/169/3 98/170/1 100/171/4
f 100/171/4 98/170/1 97/172/2
f 101/173/2 102/174/1 103/175/3
f 103/176/3 102/177/1 104/178/4
f 104/178/4 102/177/1 101/179/2
f 105/180/2 106/181/1 107/182/3
f 107/183/3 106/184/1 108/185/4
f 108/185/4 106/184/1 105/186/2
f 109/187/2 110/188/1 111/189/3
f 111/190/3 110/191/1 112/192/4
f 112/192/4 110/191/1 109/193/2
f 113/194/2 114/195/1 115/196/3
f 115/197/3 114/198/1 116/199/4
f 116/199/4 114/198/1 113/200/2
f 117/201/2 118/202/1 119/203/3
f 119/204/3 118/205/1 120/206/4
f 120/206/4 118/205/1 117/207/2
f 121/208/2 122/209/1 123/210/3
f 123/211/3 122/212/1 124/213/4
f 124/213/4 122/212/1 121/214/2
f 125/215/2 126/216/1 127/217/3
f 127/218/3 126/219/1 128/220/5
f 128/220/5 126/219/1 125/221/2
f 129/222/2 130/223/1 131/224/3
f 131/225/3 130/226/1 132/227/4
f 132/227/4 130/226/1 129/228/2
f 133/229/2 134/230/1 135/231/3
f 135/232/3 134/233/1 136/234/4
f 136/234/4 134/233/1 133/235/2
f 137/236/2 138/237/1 139/238/3
f 139/239/3 138/240/1 140/241/4
f 140/241/4 138/240/1 137/242/2
f 141/243/2 142/244/1 143/245/3
f 143/246/3 142/247/1 144/248/4
f 144/248/4 142/247/1 141/249/2
f 145/250/2 146/251/1 147/252/3
f 147/253/3 146/254/1 148/255/4
f 148/255/4 146/254/1 145/256/2
f 149/257/2 150/258/1 151/259/3
f 151/260/3 150/261/1 152/262/4
f 152/262/4 150/261/1 149/263/2
f 153/264/2 154/265/1 155/266/3
f 155/267/3 154/268/1 156/269/4
f 156/269/4 154/268/1 153/270/2
f 157/271/2 158/272/1 159/273/3
f 159/274/3 158/275/1 160/276/4
f 160/276/4 158/275/1 157/277/2
f 161/278/2 162/279/1 163/280/3
f 163/281/3 162/282/1 164/283/4
f 164/283/4 162/282/1 161/284/2
f 165/285/2 166/286/1 167/287/3
f 167/288/3 166/289/1 168/290/4
f 168/290/4 166/289/1 165/291/2
f 169/292/2 170/293/1 171/294/3
f 171/295/3 170/296/1 172/297/5
f 172/297/5 170/296/1 169/298/2
f 173/299/2 174/300/1 175/301/3
f 175/302/3 174/303/1 176/304/4
f 176/304/4 174/303/1 173/305/2
f 177/306/2 178/307/1 179/308/3
f 179/309/3 178/310/1 180/311/4
f 180/311/4 178/310/1 177/312/2
f 181/313/2 182/314/1 183/315/3
f 183/316/3 182/317/1 184/318/4
f 184/318/4 182/317/1 181/319/2
f 185/320/2 186/321/1 187/322/3
f 187/323/3 186/324/1 188/325/5
f 188/325/5 186/324/1 185/326/2
f 189/327/2 190/328/1 191/329/3
f 191/330/3 190/331/1 192/332/5
f 192/332/5 190/331/1 189/333/2
f 193/334/2 194/335/1 195/336/3
f 195/337/3 194/338/1 196/339/4
f 196/339/4 194/338/1 193/340/2
f 197/341/2 198/342/1 199/343/3
f 199/344/3 198/345/1 200/346/5
f 200/346/5 198/345/1 197/347/2
f 201/348/2 202/349/1 203/350/3
f 203/351/3 202/352/1 204/353/4
f 204/353/4 202/352/1 201/354/2
f 205/355/2 206/356/1 207/357/3
f 207/358/3 206/359/1 208/360/4
f 208/360/4 206/359/1 205/361/2
f 209/362/2 210/363/1 211/364/3
f 211/365/3 210/366/1 212/367/4
f 212/367/4 210/366/1 209/368/2
f 213/369/2 214/370/1 215/371/3
f 215/372/3 214/373/1 216/374/4
f 216/374/4 214/373/1 213/375/2
f 217/376/2 218/377/1 219/378/3
f 219/379/3 218/380/1 220/381/4
f 220/381/4 218/380/1 217/382/2
f 221/383/2 222/384/1 223/385/3
f 223/386/3 222/387/1 224/388/4
f 224/388/4 222/387/1 221/389/2
f 225/390/2 226/391/1 227/392/3
f 227/393/3 226/394/1 228/395/4
f 228/395/4 226/394/1 225/396/2
f 229/397/3 230/398/1 231/399/4
f 232/400/2 230/401/1 229/402/3
f 231/399/4 230/398/1 232/403/2
f 233/404/2 234/405/1 235/406/3
f 235/407/3 234/408/1 236/409/5
f 236/409/5 234/408/1 233/410/2
f 237/411/2 238/412/1 239/413/3
f 239/414/3 238/415/1 240/416/4
f 240/416/4 238/415/1 237/417/2
f 241/418/2 242/419/1 243/420/3
f 243/421/3 242/422/1 244/423/4
f 244/423/4 242/422/1 241/424/2
f 245/425/2 246/426/1 247/427/3
f 247/428/3 246/429/1 248/430/4
f 248/430/4 246/429/1 245/431/2
f 249/432/2 250/433/1 251/434/3
f 251/435/3 250/436/1 252/437/5
f 252/437/5 250/436/1 249/438/2
f 253/439/2 254/440/1 255/441/3
f 255/442/3 254/443/1 256/444/4
f 256/444/4 254/443/1 253/445/2
f 257/446/2 258/447/1 259/448/3
f 259/449/3 258/450/1 260/451/4
f 260/451/4 258/450/1 257/452/2
