# Blender v2.80 (sub 75) OBJ File: ''
# www.blender.org
mtllib spikes.mtl
o Plane.002
v -3.000000 -0.000000 3.000000
v 3.000000 -0.000000 3.000000
v 3.000000 0.000000 -3.000000
v -3.000000 0.000000 -3.000000
v 2.698178 -0.000000 0.147847
v 2.630455 0.882613 0.307655
v 2.734991 -0.000000 0.446209
v 2.458195 -0.000000 0.328909
v -0.224549 0.000000 -0.636674
v -0.292273 0.882613 -0.476866
v -0.187737 0.000000 -0.338312
v -0.464532 0.000000 -0.455613
v -0.693724 -0.000000 0.693936
v -0.761447 0.882613 0.853744
v -0.656911 -0.000000 0.992298
v -0.933707 -0.000000 0.874998
v 1.721372 -0.000000 1.393853
v 1.653649 0.882613 1.553661
v 1.758185 -0.000000 1.692215
v 1.481389 -0.000000 1.574914
v 0.636886 -0.000000 0.886221
v 0.569163 0.882613 1.046029
v 0.673699 -0.000000 1.184583
v 0.396904 -0.000000 1.067282
v -0.067645 0.000000 -1.878833
v -0.135368 0.882613 -1.719026
v -0.030832 0.000000 -1.580471
v -0.307628 0.000000 -1.697772
v -2.378138 -0.000000 1.016975
v -2.445862 0.882613 1.176782
v -2.341326 -0.000000 1.315337
v -2.618121 -0.000000 1.198036
v 0.767640 -0.000000 1.901484
v 0.699916 0.882613 2.061292
v 0.804452 -0.000000 2.199846
v 0.527657 -0.000000 2.082546
v -1.778210 -0.000000 2.063004
v -1.845933 0.882613 2.222811
v -1.741397 -0.000000 2.361366
v -2.018193 -0.000000 2.244065
v -1.901272 -0.000000 0.224762
v -1.968996 0.882613 0.384569
v -1.864460 -0.000000 0.523124
v -2.141255 -0.000000 0.405823
v -2.581191 0.000000 -1.845761
v -2.648914 0.882613 -1.685953
v -2.544378 0.000000 -1.547399
v -2.821174 0.000000 -1.664699
v 2.059793 0.000000 -1.698086
v 1.992070 0.882613 -1.538278
v 2.096606 0.000000 -1.399724
v 1.819810 0.000000 -1.517024
v 2.528968 0.000000 -2.613361
v 2.461245 0.882613 -2.453553
v 2.565781 0.000000 -2.314999
v 2.288985 0.000000 -2.432300
v 0.561511 0.000000 -2.151878
v 0.493787 0.882613 -1.992070
v 0.598323 0.000000 -1.853516
v 0.321528 0.000000 -1.970816
v -1.875890 0.000000 -1.236602
v -1.943614 0.882613 -1.076794
v -1.839078 0.000000 -0.938240
v -2.115874 0.000000 -1.055541
v 2.682796 0.000000 -0.713588
v 2.615072 0.882613 -0.553780
v 2.719608 0.000000 -0.415226
v 2.442813 0.000000 -0.532526
v 0.421527 -0.000000 0.100930
v 0.353804 0.882613 0.260738
v 0.458340 -0.000000 0.399292
v 0.181544 -0.000000 0.281992
v 2.713561 -0.000000 0.993900
v 2.645838 0.882613 1.153708
v 2.750374 -0.000000 1.292263
v 2.473578 -0.000000 1.174962
v 2.613573 -0.000000 2.309128
v 2.545850 0.882613 2.468936
v 2.650386 -0.000000 2.607490
v 2.373590 -0.000000 2.490190
v -0.309155 -0.000000 2.324511
v -0.376878 0.882613 2.484319
v -0.272342 -0.000000 2.622873
v -0.549138 -0.000000 2.505572
v -0.804480 -0.000000 1.739196
v -0.872204 0.882613 1.899004
v -0.767668 -0.000000 2.037558
v -1.044463 -0.000000 1.920257
v -1.447481 -0.000000 1.255408
v -1.515204 0.882613 1.415215
v -1.410668 -0.000000 1.553770
v -1.687464 -0.000000 1.436469
v -0.324538 -0.000000 0.132465
v -0.392262 0.882613 0.292273
v -0.287725 -0.000000 0.430827
v -0.564521 -0.000000 0.313526
v -2.601189 0.000000 -0.828959
v -2.668912 0.882613 -0.669151
v -2.564376 0.000000 -0.530597
v -2.841172 0.000000 -0.647897
v -1.839741 0.000000 -2.067273
v -1.907465 0.882613 -1.907465
v -1.802928 0.000000 -1.768911
v -2.079724 0.000000 -1.886211
v 0.906085 0.000000 -1.367356
v 0.838361 0.882613 -1.207548
v 0.942897 0.000000 -1.068994
v 0.666102 0.000000 -1.186295
v -0.809095 0.000000 -1.236603
v -0.876819 0.882613 -1.076795
v -0.772283 0.000000 -0.938240
v -1.049078 0.000000 -1.055541
v 1.736755 0.000000 -2.621053
v 1.669031 0.882613 -2.461245
v 1.773567 0.000000 -2.322691
v 1.496772 0.000000 -2.439991
v 1.382951 0.000000 -1.905754
v 1.315227 0.882613 -1.745946
v 1.419763 0.000000 -1.607392
v 1.142968 0.000000 -1.724692
v -0.393760 0.000000 -2.636436
v -0.461484 0.882613 -2.476628
v -0.356948 0.000000 -2.338073
v -0.633743 0.000000 -2.455374
v -2.641953 0.000000 -2.894866
v -2.709677 0.882613 -2.735058
v -2.605141 0.000000 -2.596504
v -2.881936 0.000000 -2.713805
v -0.985997 0.000000 -0.175191
v -1.053721 0.882613 -0.015383
v -0.949185 -0.000000 0.123171
v -1.225980 -0.000000 0.005871
v -2.616571 -0.000000 2.078386
v -2.684295 0.882613 2.238194
v -2.579759 -0.000000 2.376748
v -2.856555 -0.000000 2.259448
v -0.209167 -0.000000 1.255408
v -0.276891 0.882613 1.415215
v -0.172354 -0.000000 1.553770
v -0.449150 -0.000000 1.436469
v 1.567544 -0.000000 2.301436
v 1.499820 0.882613 2.461244
v 1.604356 -0.000000 2.599798
v 1.327561 -0.000000 2.482498
v 1.475247 -0.000000 0.747776
v 1.407524 0.882613 0.907583
v 1.512060 -0.000000 1.046138
v 1.235264 -0.000000 0.928837
v 0.748411 0.000000 -0.668209
v 0.680688 0.882613 -0.508401
v 0.785224 0.000000 -0.369847
v 0.508428 0.000000 -0.487147
v -1.455172 -0.000000 0.570874
v -1.522895 0.882613 0.730682
v -1.418359 -0.000000 0.869236
v -1.695155 -0.000000 0.751936
v 2.705870 0.000000 -1.621172
v 2.638146 0.882613 -1.461364
v 2.742682 0.000000 -1.322810
v 2.465887 0.000000 -1.440110
v 1.667532 0.000000 -0.890490
v 1.599809 0.882613 -0.730682
v 1.704345 0.000000 -0.592128
v 1.427549 0.000000 -0.709428
v -0.970614 0.000000 -1.905753
v -1.038338 0.882613 -1.745945
v -0.933802 0.000000 -1.607391
v -1.210597 0.000000 -1.724692
v -1.085985 0.000000 -2.874868
v -1.153708 0.882613 -2.715060
v -1.049172 0.000000 -2.576506
v -1.325968 0.000000 -2.693807
v -1.229045 0.000000 -0.731278
v -1.296769 0.882613 -0.571470
v -1.192233 0.000000 -0.432916
v -1.469028 0.000000 -0.550217
v -2.590420 -0.000000 0.197073
v -2.658144 0.882613 0.356880
v -2.553608 -0.000000 0.495435
v -2.830404 -0.000000 0.378134
v 2.413598 -0.000000 1.709200
v 2.345873 0.882613 1.869007
v 2.450409 -0.000000 2.007562
v 2.173614 -0.000000 1.890261
v 1.109138 0.000000 -0.193650
v 1.041414 0.882613 -0.033842
v 1.145950 -0.000000 0.104712
v 0.869154 0.000000 -0.012589
v 0.067724 0.000000 -1.213528
v 0.000000 0.882613 -1.053720
v 0.104536 0.000000 -0.915166
v -0.172260 0.000000 -1.032467
v 1.067604 0.000000 -2.805646
v 0.999880 0.882613 -2.645838
v 1.104416 0.000000 -2.507284
v 0.827621 0.000000 -2.624584
v 1.878277 -0.000000 0.252451
v 1.810553 0.882613 0.412258
v 1.915089 -0.000000 0.550813
v 1.638293 -0.000000 0.433512
v 2.039796 0.000000 -0.401317
v 1.972072 0.882613 -0.241510
v 2.076608 0.000000 -0.102955
v 1.799812 0.000000 -0.220256
v -1.052143 -0.000000 2.452188
v -1.119867 0.882613 2.611996
v -1.015331 -0.000000 2.750550
v -1.292126 -0.000000 2.633250
v -2.182777 -0.000000 1.575370
v -2.250501 0.882613 1.735177
v -2.145965 -0.000000 1.873732
v -2.422760 -0.000000 1.756431
v 0.240011 0.000000 -2.824105
v 0.172287 0.882613 -2.664297
v 0.276823 0.000000 -2.525743
v 0.000027 0.000000 -2.643043
v 0.624580 -0.000000 2.413731
v 0.556856 0.882613 2.573539
v 0.661392 -0.000000 2.712094
v 0.384597 -0.000000 2.594793
v 1.086064 -0.000000 1.290788
v 1.018339 0.882613 1.450596
v 1.122875 -0.000000 1.589151
v 0.846080 -0.000000 1.471850
v 0.024652 -0.000000 0.613946
v -0.043072 0.882613 0.773754
v 0.061464 -0.000000 0.912309
v -0.215332 -0.000000 0.795008
v 2.504249 0.000000 -1.815059
v 2.399714 0.882613 -1.953613
v 2.227454 0.000000 -1.932359
v 2.467437 0.000000 -2.113421
v 2.885849 0.000000 -2.916401
v 2.818124 0.882613 -2.756594
v 2.922660 0.000000 -2.618039
v 2.645865 0.000000 -2.735340
v -1.936653 0.000000 -0.409009
v -2.004377 0.882613 -0.249201
v -1.899841 0.000000 -0.110646
v -2.176636 0.000000 -0.227947
v -1.902811 0.000000 -2.721040
v -1.970535 0.882613 -2.561233
v -1.865999 0.000000 -2.422678
v -2.142794 0.000000 -2.539979
v 2.193624 -0.000000 0.975441
v 2.125900 0.882613 1.135249
v 2.230436 -0.000000 1.273803
v 1.953640 -0.000000 1.156503
v 2.270538 0.000000 -1.108925
v 2.202813 0.882613 -0.949118
v 2.307349 0.000000 -0.810563
v 2.030554 0.000000 -0.927864
v 0.129254 -0.000000 1.832262
v 0.061531 0.882613 1.992070
v 0.166067 -0.000000 2.130624
v -0.110729 -0.000000 2.013323
v 1.029147 -0.000000 0.447812
v 0.961423 0.882613 0.607620
v 1.065959 -0.000000 0.746174
v 0.789164 -0.000000 0.628873
vt 0.000000 0.000000
vt 1.000000 0.000000
vt 1.000000 1.000000
vt 0.000000 1.000000
vt 0.000000 0.000000
vt 0.000000 0.000000
vt 0.000000 0.000000
vt 0.000000 0.000000
vt 0.000000 0.000000
vt 0.000000 0.000000
vt 0.000000 0.000000
vt 0.000000 0.000000
vt 0.000000 0.000000
vt 0.000000 0.000000
vt 0.000000 0.000000
vt 0.000000 0.000000
vt 0.000000 0.000000
vt 0.000000 0.000000
vt 0.000000 0.000000
vt 0.000000 0.000000
vt 0.000000 0.000000
vt 0.000000 0.000000
vt 0.000000 0.000000
vt 0.000000 0.000000
vt 0.000000 0.000000
vt 0.000000 0.000000
vt 0.000000 0.000000
vt 0.000000 0.000000
vt 0.000000 0.000000
vt 0.000000 0.000000
vt 0.000000 0.000000
vt 0.000000 0.000000
vt 0.000000 0.000000
vt 0.000000 0.000000
vt 0.000000 0.000000
vt 0.000000 0.000000
vt 0.000000 0.000000
vt 0.000000 0.000000
vt 0.000000 0.000000
vt 0.000000 0.000000
vt 0.000000 0.000000
vt 0.000000 0.000000
vt 0.000000 0.000000
vt 0.000000 0.000000
vt 0.000000 0.000000
vt 0.000000 0.000000
vt 0.000000 0.000000
vt 0.000000 0.000000
vt 0.000000 0.000000
vt 0.000000 0.000000
vt 0.000000 0.000000
vt 0.000000 0.000000
vt 0.000000 0.000000
vt 0.000000 0.000000
vt 0.000000 0.000000
vt 0.000000 0.000000
vt 0.000000 0.000000
vt 0.000000 0.000000
vt 0.000000 0.000000
vt 0.000000 0.000000
vt 0.000000 0.000000
vt 0.000000 0.000000
vt 0.000000 0.000000
vt 0.000000 0.000000
vt 0.000000 0.000000
vt 0.000000 0.000000
vt 0.000000 0.000000
vt 0.000000 0.000000
vt 0.000000 0.000000
vt 0.000000 0.000000
vt 0.000000 0.000000
vt 0.000000 0.000000
vt 0.000000 0.000000
vt 0.000000 0.000000
vt 0.000000 0.000000
vt 0.000000 0.000000
vt 0.000000 0.000000
vt 0.000000 0.000000
vt 0.000000 0.000000
vt 0.000000 0.000000
vt 0.000000 0.000000
vt 0.000000 0.000000
vt 0.000000 0.000000
vt 0.000000 0.000000
vt 0.000000 0.000000
vt 0.000000 0.000000
vt 0.000000 0.000000
vt 0.000000 0.000000
vt 0.000000 0.000000
vt 0.000000 0.000000
vt 0.000000 0.000000
vt 0.000000 0.000000
vt 0.000000 0.000000
vt 0.000000 0.000000
vt 0.000000 0.000000
vt 0.000000 0.000000
vt 0.000000 0.000000
vt 0.000000 0.000000
vt 0.000000 0.000000
vt 0.000000 0.000000
vt 0.000000 0.000000
vt 0.000000 0.000000
vt 0.000000 0.000000
vt 0.000000 0.000000
vt 0.000000 0.000000
vt 0.000000 0.000000
vt 0.000000 0.000000
vt 0.000000 0.000000
vt 0.000000 0.000000
vt 0.000000 0.000000
vt 0.000000 0.000000
vt 0.000000 0.000000
vt 0.000000 0.000000
vt 0.000000 0.000000
vt 0.000000 0.000000
vt 0.000000 0.000000
vt 0.000000 0.000000
vt 0.000000 0.000000
vt 0.000000 0.000000
vt 0.000000 0.000000
vt 0.000000 0.000000
vt 0.000000 0.000000
vt 0.000000 0.000000
vt 0.000000 0.000000
vt 0.000000 0.000000
vt 0.000000 0.000000
vt 0.000000 0.000000
vt 0.000000 0.000000
vt 0.000000 0.000000
vt 0.000000 0.000000
vt 0.000000 0.000000
vt 0.000000 0.000000
vt 0.000000 0.000000
vt 0.000000 0.000000
vt 0.000000 0.000000
vt 0.000000 0.000000
vt 0.000000 0.000000
vt 0.000000 0.000000
vt 0.000000 0.000000
vt 0.000000 0.000000
vt 0.000000 0.000000
vt 0.000000 0.000000
vt 0.000000 0.000000
vt 0.000000 0.000000
vt 0.000000 0.000000
vt 0.000000 0.000000
vt 0.000000 0.000000
vt 0.000000 0.000000
vt 0.000000 0.000000
vt 0.000000 0.000000
vt 0.000000 0.000000
vt 0.000000 0.000000
vt 0.000000 0.000000
vt 0.000000 0.000000
vt 0.000000 0.000000
vt 0.000000 0.000000
vt 0.000000 0.000000
vt 0.000000 0.000000
vt 0.000000 0.000000
vt 0.000000 0.000000
vt 0.000000 0.000000
vt 0.000000 0.000000
vt 0.000000 0.000000
vt 0.000000 0.000000
vt 0.000000 0.000000
vt 0.000000 0.000000
vt 0.000000 0.000000
vt 0.000000 0.000000
vt 0.000000 0.000000
vt 0.000000 0.000000
vt 0.000000 0.000000
vt 0.000000 0.000000
vt 0.000000 0.000000
vt 0.000000 0.000000
vt 0.000000 0.000000
vt 0.000000 0.000000
vt 0.000000 0.000000
vt 0.000000 0.000000
vt 0.000000 0.000000
vt 0.000000 0.000000
vt 0.000000 0.000000
vt 0.000000 0.000000
vt 0.000000 0.000000
vt 0.000000 0.000000
vt 0.000000 0.000000
vt 0.000000 0.000000
vt 0.000000 0.000000
vt 0.000000 0.000000
vt 0.000000 0.000000
vt 0.000000 0.000000
vt 0.000000 0.000000
vt 0.000000 0.000000
vt 0.000000 0.000000
vt 0.000000 0.000000
vt 0.000000 0.000000
vt 0.000000 0.000000
vt 0.000000 0.000000
vt 0.000000 0.000000
vt 0.000000 0.000000
vt 0.000000 0.000000
vt 0.000000 0.000000
vt 0.000000 0.000000
vt 0.000000 0.000000
vt 0.000000 0.000000
vt 0.000000 0.000000
vt 0.000000 0.000000
vt 0.000000 0.000000
vt 0.000000 0.000000
vt 0.000000 0.000000
vt 0.000000 0.000000
vt 0.000000 0.000000
vt 0.000000 0.000000
vt 0.000000 0.000000
vt 0.000000 0.000000
vt 0.000000 0.000000
vt 0.000000 0.000000
vt 0.000000 0.000000
vt 0.000000 0.000000
vt 0.000000 0.000000
vt 0.000000 0.000000
vt 0.000000 0.000000
vt 0.000000 0.000000
vt 0.000000 0.000000
vt 0.000000 0.000000
vt 0.000000 0.000000
vt 0.000000 0.000000
vt 0.000000 0.000000
vt 0.000000 0.000000
vt 0.000000 0.000000
vt 0.000000 0.000000
vt 0.000000 0.000000
vt 0.000000 0.000000
vt 0.000000 0.000000
vt 0.000000 0.000000
vt 0.000000 0.000000
vt 0.000000 0.000000
vt 0.000000 0.000000
vt 0.000000 0.000000
vt 0.000000 0.000000
vt 0.000000 0.000000
vt 0.000000 0.000000
vt 0.000000 0.000000
vt 0.000000 0.000000
vt 0.000000 0.000000
vt 0.000000 0.000000
vt 0.000000 0.000000
vt 0.000000 0.000000
vt 0.000000 0.000000
vt 0.000000 0.000000
vt 0.000000 0.000000
vt 0.000000 0.000000
vt 0.000000 0.000000
vt 0.000000 0.000000
vt 0.000000 0.000000
vt 0.000000 0.000000
vt 0.000000 0.000000
vt 0.000000 0.000000
vt 0.000000 0.000000
vt 0.000000 0.000000
vt 0.000000 0.000000
vn 0.0000 1.0000 0.0000
vn 0.3829 0.1930 -0.9034
vn 0.5910 0.1930 0.7833
vn -0.9738 0.1930 0.1202
vn -0.9738 0.1930 0.1201
usemtl Material.001
s 1
f 1/1/1 2/2/1 3/3/1 4/4/1
f 5/5/2 6/6/1 7/7/3
f 7/7/3 6/6/1 8/8/4
f 8/8/4 6/6/1 5/5/2
f 9/9/2 10/10/1 11/11/3
f 11/11/3 10/10/1 12/12/4
f 12/12/4 10/10/1 9/9/2
f 13/13/2 14/14/1 15/15/3
f 15/15/3 14/14/1 16/16/4
f 16/16/4 14/14/1 13/13/2
f 17/17/2 18/18/1 19/19/3
f 19/19/3 18/18/1 20/20/4
f 20/20/4 18/18/1 17/17/2
f 21/21/2 22/22/1 23/23/3
f 23/23/3 22/22/1 24/24/4
f 24/24/4 22/22/1 21/21/2
f 25/25/2 26/26/1 27/27/3
f 27/27/3 26/26/1 28/28/4
f 28/28/4 26/26/1 25/25/2
f 29/29/2 30/30/1 31/31/3
f 31/31/3 30/30/1 32/32/4
f 32/32/4 30/30/1 29/29/2
f 33/33/2 34/34/1 35/35/3
f 35/35/3 34/34/1 36/36/4
f 36/36/4 34/34/1 33/33/2
f 37/37/2 38/38/1 39/39/3
f 39/39/3 38/38/1 40/40/4
f 40/40/4 38/38/1 37/37/2
f 41/41/2 42/42/1 43/43/3
f 43/43/3 42/42/1 44/44/4
f 44/44/4 42/42/1 41/41/2
f 45/45/2 46/46/1 47/47/3
f 47/47/3 46/46/1 48/48/4
f 48/48/4 46/46/1 45/45/2
f 49/49/2 50/50/1 51/51/3
f 51/51/3 50/50/1 52/52/4
f 52/52/4 50/50/1 49/49/2
f 53/53/2 54/54/1 55/55/3
f 55/55/3 54/54/1 56/56/5
f 56/56/5 54/54/1 53/53/2
f 57/57/2 58/58/1 59/59/3
f 59/59/3 58/58/1 60/60/4
f 60/60/4 58/58/1 57/57/2
f 61/61/2 62/62/1 63/63/3
f 63/63/3 62/62/1 64/64/4
f 64/64/4 62/62/1 61/61/2
f 65/65/2 66/66/1 67/67/3
f 67/67/3 66/66/1 68/68/4
f 68/68/4 66/66/1 65/65/2
f 69/69/2 70/70/1 71/71/3
f 71/71/3 70/70/1 72/72/4
f 72/72/4 70/70/1 69/69/2
f 73/73/2 74/74/1 75/75/3
f 75/75/3 74/74/1 76/76/4
f 76/76/4 74/74/1 73/73/2
f 77/77/2 78/78/1 79/79/3
f 79/79/3 78/78/1 80/80/4
f 80/80/4 78/78/1 77/77/2
f 81/81/2 82/82/1 83/83/3
f 83/83/3 82/82/1 84/84/4
f 84/84/4 82/82/1 81/81/2
f 85/85/2 86/86/1 87/87/3
f 87/87/3 86/86/1 88/88/5
f 88/88/5 86/86/1 85/85/2
f 89/89/2 90/90/1 91/91/3
f 91/91/3 90/90/1 92/92/4
f 92/92/4 90/90/1 89/89/2
f 93/93/2 94/94/1 95/95/3
f 95/95/3 94/94/1 96/96/4
f 96/96/4 94/94/1 93/93/2
f 97/97/2 98/98/1 99/99/3
f 99/99/3 98/98/1 100/100/4
f 100/100/4 98/98/1 97/97/2
f 101/101/2 102/102/1 103/103/3
f 103/103/3 102/102/1 104/104/4
f 104/104/4 102/102/1 101/101/2
f 105/105/2 106/106/1 107/107/3
f 107/107/3 106/106/1 108/108/4
f 108/108/4 106/106/1 105/105/2
f 109/109/2 110/110/1 111/111/3
f 111/111/3 110/110/1 112/112/4
f 112/112/4 110/110/1 109/109/2
f 113/113/2 114/114/1 115/115/3
f 115/115/3 114/114/1 116/116/4
f 116/116/4 114/114/1 113/113/2
f 117/117/2 118/118/1 119/119/3
f 119/119/3 118/118/1 120/120/4
f 120/120/4 118/118/1 117/117/2
f 121/121/2 122/122/1 123/123/3
f 123/123/3 122/122/1 124/124/4
f 124/124/4 122/122/1 121/121/2
f 125/125/2 126/126/1 127/127/3
f 127/127/3 126/126/1 128/128/5
f 128/128/5 126/126/1 125/125/2
f 129/129/2 130/130/1 131/131/3
f 131/131/3 130/130/1 132/132/4
f 132/132/4 130/130/1 129/129/2
f 133/133/2 134/134/1 135/135/3
f 135/135/3 134/134/1 136/136/4
f 136/136/4 134/134/1 133/133/2
f 137/137/2 138/138/1 139/139/3
f 139/139/3 138/138/1 140/140/4
f 140/140/4 138/138/1 137/137/2
f 141/141/2 142/142/1 143/143/3
f 143/143/3 142/142/1 144/144/4
f 144/144/4 142/142/1 141/141/2
f 145/145/2 146/146/1 147/147/3
f 147/147/3 146/146/1 148/148/4
f 148/148/4 146/146/1 145/145/2
f 149/149/2 150/150/1 151/151/3
f 151/151/3 150/150/1 152/152/4
f 152/152/4 150/150/1 149/149/2
f 153/153/2 154/154/1 155/155/3
f 155/155/3 154/154/1 156/156/4
f 156/156/4 154/154/1 153/153/2
f 157/157/2 158/158/1 159/159/3
f 159/159/3 158/158/1 160/160/4
f 160/160/4 158/158/1 157/157/2
f 161/161/2 162/162/1 163/163/3
f 163/163/3 162/162/1 164/164/4
f 164/164/4 162/162/1 161/161/2
f 165/165/2 166/166/1 167/167/3
f 167/167/3 166/166/1 168/168/4
f 168/168/4 166/166/1 165/165/2
f 169/169/2 170/170/1 171/171/3
f 171/171/3 170/170/1 172/172/5
f 172/172/5 170/170/1 169/169/2
f 173/173/2 174/174/1 175/175/3
f 175/175/3 174/174/1 176/176/4
f 176/176/4 174/174/1 173/173/2
f 177/177/2 178/178/1 179/179/3
f 179/179/3 178/178/1 180/180/4
f 180/180/4 178/178/1 177/177/2
f 181/181/2 182/182/1 183/183/3
f 183/183/3 182/182/1 184/184/4
f 184/184/4 182/182/1 181/181/2
f 185/185/2 186/186/1 187/187/3
f 187/187/3 186/186/1 188/188/5
f 188/188/5 186/186/1 185/185/2
f 189/189/2 190/190/1 191/191/3
f 191/191/3 190/190/1 192/192/5
f 192/192/5 190/190/1 189/189/2
f 193/193/2 194/194/1 195/195/3
f 195/195/3 194/194/1 196/196/4
f 196/196/4 194/194/1 193/193/2
f 197/197/2 198/198/1 199/199/3
f 199/199/3 198/198/1 200/200/5
f 200/200/5 198/198/1 197/197/2
f 201/201/2 202/202/1 203/203/3
f 203/203/3 202/202/1 204/204/4
f 204/204/4 202/202/1 201/201/2
f 205/205/2 206/206/1 207/207/3
f 207/207/3 206/206/1 208/208/4
f 208/208/4 206/206/1 205/205/2
f 209/209/2 210/210/1 211/211/3
f 211/211/3 210/210/1 212/212/4
f 212/212/4 210/210/1 209/209/2
f 213/213/2 214/214/1 215/215/3
f 215/215/3 214/214/1 216/216/4
f 216/216/4 214/214/1 213/213/2
f 217/217/2 218/218/1 219/219/3
f 219/219/3 218/218/1 220/220/4
f 220/220/4 218/218/1 217/217/2
f 221/221/2 222/222/1 223/223/3
f 223/223/3 222/222/1 224/224/4
f 224/224/4 222/222/1 221/221/2
f 225/225/2 226/226/1 227/227/3
f 227/227/3 226/226/1 228/228/4
f 228/228/4 226/226/1 225/225/2
f 229/229/3 230/230/1 231/231/4
f 232/232/2 230/230/1 229/229/3
f 231/231/4 230/230/1 232/232/2
f 233/233/2 234/234/1 235/235/3
f 235/235/3 234/234/1 236/236/5
f 236/236/5 234/234/1 233/233/2
f 237/237/2 238/238/1 239/239/3
f 239/239/3 238/238/1 240/240/4
f 240/240/4 238/238/1 237/237/2
f 241/241/2 242/242/1 243/243/3
f 243/243/3 242/242/1 244/244/4
f 244/244/4 242/242/1 241/241/2
f 245/245/2 246/246/1 247/247/3
f 247/247/3 246/246/1 248/248/4
f 248/248/4 246/246/1 245/245/2
f 249/249/2 250/250/1 251/251/3
f 251/251/3 250/250/1 252/252/5
f 252/252/5 250/250/1 249/249/2
f 253/253/2 254/254/1 255/255/3
f 255/255/3 254/254/1 256/256/4
f 256/256/4 254/254/1 253/253/2
f 257/257/2 258/258/1 259/259/3
f 259/259/3 258/258/1 260/260/4
f 260/260/4 258/258/1 257/257/2
