# Blender v2.81 (sub 2) OBJ File: ''
# www.blender.org
mtllib stairs.mtl
o Cube.000_Cube.002
v -1.000000 2.000000 -3.000000
v -1.000000 -2.000000 3.000000
v 1.000000 -2.000000 3.000000
v 1.000000 2.000000 -3.000000
v 1.000000 1.959814 -2.261378
v -1.000000 1.959814 -2.261378
v -1.000000 1.470505 -1.527415
v -1.000000 1.508345 -2.262516
v -1.000000 0.970505 -0.777415
v -1.000000 1.008345 -1.512516
v -1.000000 0.470505 -0.027415
v -1.000000 0.508344 -0.762516
v -1.000000 -0.029495 0.722584
v -1.000000 0.008344 -0.012516
v -1.000000 -0.529495 1.472584
v -1.000000 -0.491656 0.737484
v -1.000000 -1.029495 2.222584
v -1.000000 -0.991656 1.487484
v -1.000000 -1.529496 2.972584
v -1.000000 -1.491656 2.237483
v 1.000000 -1.491656 2.237483
v 1.000000 -1.529496 2.972584
v 1.000000 -0.991656 1.487484
v 1.000000 -1.029495 2.222584
v 1.000000 -0.491656 0.737484
v 1.000000 -0.529495 1.472584
v 1.000000 0.008344 -0.012516
v 1.000000 -0.029495 0.722584
v 1.000000 0.508344 -0.762516
v 1.000000 0.470505 -0.027415
v 1.000000 1.008345 -1.512516
v 1.000000 0.970505 -0.777415
v 1.000000 1.508345 -2.262516
v 1.000000 1.470505 -1.527415
vt 0.000000 0.000000
vt 0.000000 0.000000
vt 0.000000 0.000000
vt 0.000000 0.000000
vt 0.000000 0.000000
vt 0.000000 0.000000
vt 0.000000 0.000000
vt 0.000000 0.000000
vt 0.000000 0.000000
vt 0.000000 0.000000
vt 0.000000 0.000000
vt 0.000000 0.000000
vt 0.000000 0.000000
vt 0.000000 0.000000
vt 0.000000 0.000000
vt 0.000000 0.000000
vt 0.000000 0.000000
vt 0.000000 0.000000
vt 0.000000 0.000000
vt 0.000000 0.000000
vt 0.000000 0.000000
vt 0.000000 0.000000
vt 0.000000 0.000000
vt 0.000000 0.000000
vt 0.000000 0.000000
vt 0.000000 0.000000
vt 0.000000 0.000000
vt 0.000000 0.000000
vt 0.000000 0.000000
vt 0.000000 0.000000
vt 0.000000 0.000000
vt 0.000000 0.000000
vt 0.000000 0.000000
vt 0.000000 0.000000
vn 0.0000 0.9985 0.0543
vn 0.0000 0.6867 0.7269
vn 0.0000 0.7003 0.7139
vn 0.0000 0.7095 0.7047
vn 0.0000 0.0582 0.9983
vn 0.0000 0.6878 0.7259
usemtl Material.001
s 1
f 1/1/1 6/2/2 5/3/2 4/4/1
f 7/5/3 10/6/3 31/7/3 34/8/3
f 9/9/3 12/10/3 29/11/3 32/12/3
f 11/13/3 14/14/3 27/15/3 30/16/3
f 13/17/3 16/18/3 25/19/3 28/20/3
f 15/21/3 18/22/3 23/23/3 26/24/3
f 17/25/3 20/26/3 21/27/3 24/28/3
f 19/29/4 2/30/5 3/31/5 22/32/4
f 7/5/3 34/8/3 33/33/6 8/34/6
f 9/9/3 32/12/3 31/7/3 10/6/3
f 11/13/3 30/16/3 29/11/3 12/10/3
f 13/17/3 28/20/3 27/15/3 14/14/3
f 15/21/3 26/24/3 25/19/3 16/18/3
f 17/25/3 24/28/3 23/23/3 18/22/3
f 19/29/4 22/32/4 21/27/3 20/26/3
f 6/2/2 8/34/6 33/33/6 5/3/2
