# Blender v2.79 (sub 0) OBJ File: ''
# www.blender.org
mtllib stairs.mtl
o Cube.000_Cube.002
v -1.000000 2.000000 -3.000000
v -1.000000 1.959814 -2.261378
v 1.000000 1.959814 -2.261378
v 1.000000 2.000000 -3.000000
v -1.000000 1.470505 -1.527415
v -1.000000 1.008345 -1.512516
v 1.000000 1.008345 -1.512516
v 1.000000 1.470505 -1.527415
v -1.000000 0.970505 -0.777415
v -1.000000 0.508344 -0.762516
v 1.000000 0.508344 -0.762516
v 1.000000 0.970505 -0.777415
v -1.000000 0.470505 -0.027415
v -1.000000 0.008344 -0.012516
v 1.000000 0.008344 -0.012516
v 1.000000 0.470505 -0.027415
v -1.000000 -0.029495 0.722584
v -1.000000 -0.491656 0.737484
v 1.000000 -0.491656 0.737484
v 1.000000 -0.029495 0.722584
v -1.000000 -0.529495 1.472584
v -1.000000 -0.991656 1.487484
v 1.000000 -0.991656 1.487484
v 1.000000 -0.529495 1.472584
v -1.000000 -1.029495 2.222584
v -1.000000 -1.491656 2.237483
v 1.000000 -1.491656 2.237483
v 1.000000 -1.029495 2.222584
v -1.000000 -1.529496 2.972584
v -1.000000 -2.000000 3.000000
v 1.000000 -2.000000 3.000000
v 1.000000 -1.529496 2.972584
v 1.000000 1.508345 -2.262516
v -1.000000 1.508345 -2.262516
vt 0.000000 0.000000
vt 0.000000 0.369311
vt 1.000000 0.369311
vt 1.000000 0.000000
vt 0.000000 0.235252
vt 0.000000 0.004173
vt 1.000000 0.004173
vt 1.000000 0.235252
vt 0.000000 0.985252
vt 0.000000 0.754172
vt 1.000000 0.754172
vt 1.000000 0.985252
vt 0.000000 0.735252
vt 0.000000 0.504172
vt 1.000000 0.504172
vt 1.000000 0.735252
vt 0.000000 0.485252
vt 0.000000 0.254172
vt 1.000000 0.254172
vt 1.000000 0.485252
vt 0.000000 0.235252
vt 0.000000 0.004172
vt 1.000000 0.004172
vt 1.000000 0.235252
vt 0.000000 0.985252
vt 0.000000 0.754172
vt 1.000000 0.754172
vt 1.000000 0.985252
vt 0.000000 0.735252
vt 0.000000 0.500000
vt 1.000000 0.500000
vt 1.000000 0.735252
vt 0.000000 0.736292
vt 1.000000 0.736292
vt 1.000000 0.368742
vt 0.000000 0.368742
vt 0.000000 0.111293
vt 1.000000 0.111293
vt 1.000000 -0.256258
vt 0.000000 -0.256258
vt 0.000000 0.486293
vt 1.000000 0.486293
vt 1.000000 0.118742
vt 0.000000 0.118742
vt 0.000000 0.861292
vt 1.000000 0.861292
vt 1.000000 0.493742
vt 0.000000 0.493742
vt 0.000000 0.236292
vt 1.000000 0.236292
vt 1.000000 -0.131258
vt 0.000000 -0.131258
vt 0.000000 0.611292
vt 1.000000 0.611292
vt 1.000000 0.243742
vt 0.000000 0.243742
vt 0.000000 0.986292
vt 1.000000 0.986292
vt 1.000000 0.618742
vt 0.000000 0.618742
vt 0.000000 0.479907
vt 0.000000 0.254173
vt 1.000000 0.254173
vt 1.000000 0.479907
vn 0.0000 0.9985 0.0543
vn 0.0000 0.6867 0.7269
vn 0.0000 0.7003 0.7139
vn 0.0000 0.7095 0.7047
vn 0.0000 0.0582 0.9983
vn 0.0000 0.6878 0.7259
usemtl Material.001
s 1
f 1/1/1 2/2/2 3/3/2 4/4/1
f 5/5/3 6/6/3 7/7/3 8/8/3
f 9/9/3 10/10/3 11/11/3 12/12/3
f 13/13/3 14/14/3 15/15/3 16/16/3
f 17/17/3 18/18/3 19/19/3 20/20/3
f 21/21/3 22/22/3 23/23/3 24/24/3
f 25/25/3 26/26/3 27/27/3 28/28/3
f 29/29/4 30/30/5 31/31/5 32/32/4
f 5/33/3 8/34/3 33/35/6 34/36/6
f 9/37/3 12/38/3 7/39/3 6/40/3
f 13/41/3 16/42/3 11/43/3 10/44/3
f 17/45/3 20/46/3 15/47/3 14/48/3
f 21/49/3 24/50/3 19/51/3 18/52/3
f 25/53/3 28/54/3 23/55/3 22/56/3
f 29/57/4 32/58/4 27/59/3 26/60/3
f 2/61/2 34/62/6 33/63/6 3/64/2
