# Blender v2.81 (sub 3) OBJ File: ''
# www.blender.org
mtllib teleporter 3.mtl
o Circle.001_Circle.001_Circle.001_Circle.002
v -0.142462 0.056800 -0.716204
v -0.405696 0.056800 -0.607169
v -0.516355 0.056800 -0.516355
v -0.607169 0.056800 -0.405697
v -0.674650 0.056800 -0.279448
v -0.716204 0.056800 -0.142462
v -0.405696 0.056800 0.607169
v -0.142462 0.056800 0.716204
v 0.000000 0.056800 0.730235
v 0.142462 0.056800 0.716204
v 0.730235 0.056800 -0.000000
v 0.716204 0.056800 -0.142462
v 0.674650 0.056800 -0.279450
v 0.607169 0.056800 -0.405698
v 0.279448 0.056800 -0.674650
v 0.279450 0.056800 0.674650
v 0.405698 0.056800 0.607169
v 0.516355 0.056800 0.516355
v 0.607169 0.056800 0.405696
v 0.674650 0.056800 0.279448
v 0.716204 0.056800 0.142462
v 0.516355 0.056800 -0.516355
v 0.405697 0.056800 -0.607169
v -0.279448 0.056800 -0.674650
v -0.730235 0.056800 -0.000000
v -0.716204 0.056800 0.142462
v -0.674650 0.056800 0.279448
v -0.607169 0.056800 0.405696
v -0.516355 0.056800 0.516355
v -0.279448 0.056800 0.674650
v -0.126260 0.056800 -0.634752
v -0.359558 0.056800 -0.538117
v -0.457631 0.056800 -0.457631
v -0.538117 0.056800 -0.359558
v -0.597923 0.056800 -0.247667
v -0.634752 0.056800 -0.126260
v -0.359558 0.056800 0.538117
v -0.126260 0.056800 0.634752
v 0.000000 0.056800 0.647187
v 0.126260 0.056800 0.634752
v 0.647187 0.056800 -0.000000
v 0.634752 0.056800 -0.126260
v 0.597923 0.056800 -0.247669
v 0.538117 0.056800 -0.359559
v 0.247667 0.056800 -0.597923
v 0.247669 0.056800 0.597923
v 0.359559 0.056800 0.538117
v 0.457631 0.056800 0.457631
v 0.538117 0.056800 0.359558
v 0.597923 0.056800 0.247667
v 0.634752 0.056800 0.126260
v 0.457631 0.056800 -0.457631
v 0.359558 0.056800 -0.538117
v -0.247667 0.056800 -0.597923
v -0.647187 0.056800 -0.000000
v -0.634752 0.056800 0.126260
v -0.597923 0.056800 0.247667
v -0.538117 0.056800 0.359558
v -0.457631 0.056800 0.457631
v -0.247667 0.056800 0.597923
v 0.142461 0.056800 -0.716204
v 0.000000 0.056800 -0.730235
v 0.126259 0.056800 -0.634752
v 0.000000 0.056800 -0.647187
v -0.067117 0.056800 -0.337417
v -0.191131 0.056800 -0.286049
v -0.243264 0.056800 -0.243264
v -0.286049 0.056800 -0.191131
v -0.317840 0.056800 -0.131653
v -0.337417 0.056800 -0.067117
v -0.191131 0.056800 0.286049
v -0.067117 0.056800 0.337417
v 0.000000 0.056800 0.344027
v 0.067117 0.056800 0.337417
v 0.344027 0.056800 0.000000
v 0.337417 0.056800 -0.067117
v 0.317840 0.056800 -0.131654
v 0.286049 0.056800 -0.191132
v 0.131653 0.056800 -0.317840
v 0.131654 0.056800 0.317840
v 0.191132 0.056800 0.286049
v 0.243264 0.056800 0.243264
v 0.286049 0.056800 0.191131
v 0.317840 0.056800 0.131653
v 0.337417 0.056800 0.067117
v 0.243264 0.056800 -0.243264
v 0.191131 0.056800 -0.286049
v -0.131653 0.056800 -0.317840
v -0.344027 0.056800 0.000000
v -0.337417 0.056800 0.067117
v -0.317840 0.056800 0.131653
v -0.286049 0.056800 0.191131
v -0.243264 0.056800 0.243264
v -0.131653 0.056800 0.317840
v -0.026909 0.056800 -0.135280
v -0.076630 0.056800 -0.114685
v -0.097532 0.056800 -0.097532
v -0.114685 0.056800 -0.076630
v -0.127431 0.056800 -0.052784
v -0.135280 0.056800 -0.026909
v -0.076630 0.056800 0.114685
v -0.026909 0.056800 0.135280
v 0.000000 0.056800 0.137931
v 0.026909 0.056800 0.135280
v 0.137931 0.056800 -0.000000
v 0.135280 0.056800 -0.026909
v 0.127431 0.056800 -0.052784
v 0.114685 0.056800 -0.076630
v 0.052784 0.056800 -0.127431
v 0.052784 0.056800 0.127431
v 0.076630 0.056800 0.114685
v 0.097532 0.056800 0.097532
v 0.114685 0.056800 0.076630
v 0.127431 0.056800 0.052784
v 0.135280 0.056800 0.026909
v 0.097532 0.056800 -0.097532
v 0.076630 0.056800 -0.114685
v -0.052784 0.056800 -0.127431
v -0.137931 0.056800 -0.000000
v -0.135280 0.056800 0.026909
v -0.127431 0.056800 0.052784
v -0.114685 0.056800 0.076630
v -0.097532 0.056800 0.097532
v -0.052784 0.056800 0.127431
v 0.067116 0.056800 -0.337417
v 0.000000 0.056800 -0.344027
v 0.026909 0.056800 -0.135280
v 0.000000 0.056800 -0.137931
vt 0.000000 0.000000
vt 0.000000 0.000000
vt 0.000000 0.000000
vt 0.000000 0.000000
vt 0.000000 0.000000
vt 0.000000 0.000000
vt 0.000000 0.000000
vt 0.000000 0.000000
vt 0.000000 0.000000
vt 0.000000 0.000000
vt 0.000000 0.000000
vt 0.000000 0.000000
vt 0.000000 0.000000
vt 0.000000 0.000000
vt 0.000000 0.000000
vt 0.000000 0.000000
vt 0.000000 0.000000
vt 0.000000 0.000000
vt 0.000000 0.000000
vt 0.000000 0.000000
vt 0.000000 0.000000
vt 0.000000 0.000000
vt 0.000000 0.000000
vt 0.000000 0.000000
vt 0.000000 0.000000
vt 0.000000 0.000000
vt 0.000000 0.000000
vt 0.000000 0.000000
vt 0.000000 0.000000
vt 0.000000 0.000000
vt 0.000000 0.000000
vt 0.000000 0.000000
vt 0.000000 0.000000
vt 0.000000 0.000000
vt 0.000000 0.000000
vt 0.000000 0.000000
vt 0.000000 0.000000
vt 0.000000 0.000000
vt 0.000000 0.000000
vt 0.000000 0.000000
vt 0.000000 0.000000
vt 0.000000 0.000000
vt 0.000000 0.000000
vt 0.000000 0.000000
vt 0.000000 0.000000
vt 0.000000 0.000000
vt 0.000000 0.000000
vt 0.000000 0.000000
vt 0.000000 0.000000
vt 0.000000 0.000000
vt 0.000000 0.000000
vt 0.000000 0.000000
vt 0.000000 0.000000
vt 0.000000 0.000000
vt 0.000000 0.000000
vt 0.000000 0.000000
vt 0.000000 0.000000
vt 0.000000 0.000000
vt 0.000000 0.000000
vt 0.000000 0.000000
vt 0.000000 0.000000
vt 0.000000 0.000000
vt 0.000000 0.000000
vt 0.000000 0.000000
vt 0.000000 0.000000
vt 0.000000 0.000000
vt 0.000000 0.000000
vt 0.000000 0.000000
vt 0.000000 0.000000
vt 0.000000 0.000000
vt 0.000000 0.000000
vt 0.000000 0.000000
vt 0.000000 0.000000
vt 0.000000 0.000000
vt 0.000000 0.000000
vt 0.000000 0.000000
vt 0.000000 0.000000
vt 0.000000 0.000000
vt 0.000000 0.000000
vt 0.000000 0.000000
vt 0.000000 0.000000
vt 0.000000 0.000000
vt 0.000000 0.000000
vt 0.000000 0.000000
vt 0.000000 0.000000
vt 0.000000 0.000000
vt 0.000000 0.000000
vt 0.000000 0.000000
vt 0.000000 0.000000
vt 0.000000 0.000000
vt 0.000000 0.000000
vt 0.000000 0.000000
vt 0.000000 0.000000
vt 0.000000 0.000000
vt 0.000000 0.000000
vt 0.000000 0.000000
vt 0.000000 0.000000
vt 0.000000 0.000000
vt 0.000000 0.000000
vt 0.000000 0.000000
vt 0.000000 0.000000
vt 0.000000 0.000000
vt 0.000000 0.000000
vt 0.000000 0.000000
vt 0.000000 0.000000
vt 0.000000 0.000000
vt 0.000000 0.000000
vt 0.000000 0.000000
vt 0.000000 0.000000
vt 0.000000 0.000000
vt 0.000000 0.000000
vt 0.000000 0.000000
vt 0.000000 0.000000
vt 0.000000 0.000000
vt 0.000000 0.000000
vt 0.000000 0.000000
vt 0.000000 0.000000
vt 0.000000 0.000000
vt 0.000000 0.000000
vt 0.000000 0.000000
vt 0.000000 0.000000
vt 0.000000 0.000000
vt 0.000000 0.000000
vt 0.000000 0.000000
vt 0.000000 0.000000
vt 0.000000 0.000000
vt 0.000000 0.000000
vt 0.000000 0.000000
vn 0.0000 1.0000 0.0000
usemtl None
s 1
f 18/1/1 48/2/1 47/3/1 17/4/1
f 30/5/1 60/6/1 37/7/1 7/8/1
f 20/9/1 50/10/1 49/11/1 19/12/1
f 3/13/1 33/14/1 32/15/1 2/16/1
f 16/17/1 46/18/1 40/19/1 10/20/1
f 11/21/1 41/22/1 51/23/1 21/24/1
f 5/25/1 35/26/1 34/27/1 4/28/1
f 22/29/1 52/30/1 44/31/1 14/32/1
f 15/33/1 45/34/1 53/35/1 23/36/1
f 27/37/1 57/38/1 56/39/1 26/40/1
f 9/41/1 39/42/1 38/43/1 8/44/1
f 29/45/1 59/46/1 58/47/1 28/48/1
f 13/49/1 43/50/1 42/51/1 12/52/1
f 24/53/1 54/54/1 31/55/1 1/56/1
f 25/57/1 55/58/1 36/59/1 6/60/1
f 61/61/1 62/62/1 64/63/1 63/64/1
f 82/65/1 112/66/1 111/67/1 81/68/1
f 94/69/1 124/70/1 101/71/1 71/72/1
f 84/73/1 114/74/1 113/75/1 83/76/1
f 67/77/1 97/78/1 96/79/1 66/80/1
f 80/81/1 110/82/1 104/83/1 74/84/1
f 75/85/1 105/86/1 115/87/1 85/88/1
f 69/89/1 99/90/1 98/91/1 68/92/1
f 86/93/1 116/94/1 108/95/1 78/96/1
f 79/97/1 109/98/1 117/99/1 87/100/1
f 91/101/1 121/102/1 120/103/1 90/104/1
f 73/105/1 103/106/1 102/107/1 72/108/1
f 93/109/1 123/110/1 122/111/1 92/112/1
f 77/113/1 107/114/1 106/115/1 76/116/1
f 88/117/1 118/118/1 95/119/1 65/120/1
f 89/121/1 119/122/1 100/123/1 70/124/1
f 125/125/1 126/126/1 128/127/1 127/128/1
