# Blender v2.81 (sub 3) OBJ File: ''
# www.blender.org
mtllib teleporter 2.mtl
o Circle.000_Circle.004
v -0.618823 0.018542 0.136421
v -0.725361 0.018542 0.029883
v -0.646397 0.018542 0.132790
v -0.672092 0.018542 0.122147
v -0.694156 0.018542 0.105216
v -0.711087 0.018542 0.083152
v -0.721730 0.018542 0.057457
v 0.725361 0.018542 0.029883
v 0.618823 0.018542 0.136421
v 0.721730 0.018542 0.057457
v 0.711087 0.018542 0.083152
v 0.694156 0.018542 0.105216
v 0.672092 0.018542 0.122147
v 0.646397 0.018542 0.132790
v -0.725361 0.018542 -0.029883
v -0.618823 0.018542 -0.136421
v -0.721730 0.018542 -0.057457
v -0.711087 0.018542 -0.083152
v -0.694156 0.018542 -0.105216
v -0.672092 0.018542 -0.122147
v -0.646397 0.018542 -0.132790
v 0.618823 0.018542 -0.136421
v 0.725361 0.018542 -0.029883
v 0.646397 0.018542 -0.132790
v 0.672092 0.018542 -0.122147
v 0.694156 0.018542 -0.105216
v 0.711087 0.018542 -0.083152
v 0.721730 0.018542 -0.057457
v -0.618823 0.054170 -0.136421
v -0.725361 0.054170 -0.029883
v -0.646397 0.054170 -0.132790
v -0.672092 0.054170 -0.122147
v -0.694156 0.054170 -0.105216
v -0.711087 0.054170 -0.083152
v -0.721730 0.054170 -0.057457
v -0.725361 0.054170 0.029883
v -0.618823 0.054170 0.136421
v -0.721730 0.054170 0.057457
v -0.711087 0.054170 0.083152
v -0.694156 0.054170 0.105216
v -0.672092 0.054170 0.122147
v -0.646397 0.054170 0.132790
v 0.618823 0.054170 0.136421
v 0.725361 0.054170 0.029883
v 0.646397 0.054170 0.132790
v 0.672092 0.054170 0.122147
v 0.694156 0.054170 0.105216
v 0.711087 0.054170 0.083152
v 0.721730 0.054170 0.057457
v 0.725361 0.054170 -0.029883
v 0.618823 0.054170 -0.136421
v 0.721730 0.054170 -0.057457
v 0.711087 0.054170 -0.083152
v 0.694156 0.054170 -0.105216
v 0.672092 0.054170 -0.122147
v 0.646397 0.054170 -0.132790
v 0.646397 0.018542 -0.132790
v 0.618823 0.018542 -0.136421
v 0.618823 0.054170 -0.136421
v 0.646397 0.054170 -0.132790
v 0.672092 0.018542 -0.122147
v 0.672092 0.054170 -0.122147
v 0.694156 0.018542 -0.105216
v 0.694156 0.054170 -0.105216
v 0.711087 0.018542 -0.083152
v 0.711087 0.054170 -0.083152
v 0.721730 0.018542 -0.057457
v 0.721730 0.054170 -0.057457
v 0.725361 0.018542 -0.029883
v 0.725361 0.054170 -0.029883
v 0.646397 0.054170 0.132790
v 0.618823 0.054170 0.136421
v 0.618823 0.018542 0.136421
v 0.646397 0.018542 0.132790
v 0.672092 0.054170 0.122147
v 0.672092 0.018542 0.122147
v 0.694156 0.054170 0.105216
v 0.694156 0.018542 0.105216
v 0.711087 0.054170 0.083152
v 0.711087 0.018542 0.083152
v 0.721730 0.054170 0.057457
v 0.721730 0.018542 0.057457
v 0.725361 0.054170 0.029883
v 0.725361 0.018542 0.029883
v -0.646397 0.018542 0.132790
v -0.618823 0.018542 0.136421
v -0.618823 0.054170 0.136421
v -0.646397 0.054170 0.132790
v -0.672092 0.018542 0.122147
v -0.672092 0.054170 0.122147
v -0.694156 0.018542 0.105216
v -0.694156 0.054170 0.105216
v -0.711087 0.018542 0.083152
v -0.711087 0.054170 0.083152
v -0.721730 0.018542 0.057457
v -0.721730 0.054170 0.057457
v -0.725361 0.018542 0.029883
v -0.725361 0.054170 0.029883
v -0.646397 0.054170 -0.132790
v -0.618823 0.054170 -0.136421
v -0.618823 0.018542 -0.136421
v -0.646397 0.018542 -0.132790
v -0.672092 0.054170 -0.122147
v -0.672092 0.018542 -0.122147
v -0.694156 0.054170 -0.105216
v -0.694156 0.018542 -0.105216
v -0.711087 0.054170 -0.083152
v -0.711087 0.018542 -0.083152
v -0.721730 0.054170 -0.057457
v -0.721730 0.018542 -0.057457
v -0.725361 0.054170 -0.029883
v -0.725361 0.018542 -0.029883
vt 0.073438 0.487721
vt 0.926562 0.487721
vt 0.926562 0.512279
vt 0.073438 0.512279
vt 0.926562 0.487721
vt 0.073438 0.487721
vt 0.073438 0.512279
vt 0.926562 0.512279
vt 0.073438 0.405964
vt 0.054431 0.408466
vt 0.036719 0.415802
vt 0.021509 0.427473
vt 0.009839 0.442683
vt 0.002502 0.460394
vt 0.000000 0.479401
vt 0.000000 0.520599
vt 0.002502 0.539606
vt 0.009839 0.557317
vt 0.021509 0.572527
vt 0.036719 0.584198
vt 0.054431 0.591534
vt 0.073438 0.594036
vt 0.926562 0.594036
vt 0.945569 0.591534
vt 0.963281 0.584198
vt 0.978491 0.572527
vt 0.990161 0.557317
vt 0.997498 0.539606
vt 1.000000 0.520599
vt 1.000000 0.479401
vt 0.997498 0.460394
vt 0.990161 0.442683
vt 0.978491 0.427473
vt 0.963281 0.415802
vt 0.945569 0.408466
vt 0.926562 0.405964
vt 0.000000 0.479401
vt 0.002502 0.460394
vt 0.009839 0.442683
vt 0.021509 0.427473
vt 0.036719 0.415802
vt 0.054431 0.408466
vt 0.073438 0.405964
vt 0.926562 0.405964
vt 0.945569 0.408466
vt 0.963281 0.415802
vt 0.978491 0.427473
vt 0.990161 0.442683
vt 0.997498 0.460394
vt 1.000000 0.479401
vt 1.000000 0.520599
vt 0.997498 0.539606
vt 0.990161 0.557317
vt 0.978491 0.572527
vt 0.963281 0.584198
vt 0.945569 0.591534
vt 0.926562 0.594036
vt 0.073438 0.594036
vt 0.054431 0.591534
vt 0.036719 0.584198
vt 0.021509 0.572527
vt 0.009839 0.557317
vt 0.002502 0.539606
vt 0.000000 0.520599
vt 0.479401 0.487721
vt 0.520599 0.487721
vt 0.520599 0.512279
vt 0.479401 0.512279
vt 0.945569 0.512279
vt 0.945569 0.487721
vt 0.963281 0.512279
vt 0.963281 0.487721
vt 0.978491 0.512279
vt 0.978491 0.487721
vt 0.572527 0.487721
vt 0.572527 0.512279
vt 0.557317 0.512279
vt 0.557317 0.487721
vt 0.539606 0.512279
vt 0.539606 0.487721
vt 0.945569 0.487721
vt 0.945569 0.512279
vt 0.963281 0.487721
vt 0.963281 0.512279
vt 0.978491 0.487721
vt 0.978491 0.512279
vt 0.427473 0.512279
vt 0.427473 0.487721
vt 0.442683 0.487721
vt 0.442683 0.512279
vt 0.460394 0.487721
vt 0.460394 0.512279
vt 0.054431 0.512279
vt 0.054431 0.487721
vt 0.036719 0.512279
vt 0.036719 0.487721
vt 0.021509 0.512279
vt 0.021509 0.487721
vt 0.427473 0.487721
vt 0.427473 0.512279
vt 0.442683 0.512279
vt 0.442683 0.487721
vt 0.460394 0.512279
vt 0.460394 0.487721
vt 0.479401 0.512279
vt 0.479401 0.487721
vt 0.054431 0.487721
vt 0.054431 0.512279
vt 0.036719 0.487721
vt 0.036719 0.512279
vt 0.021509 0.487721
vt 0.021509 0.512279
vt 0.572527 0.512279
vt 0.572527 0.487721
vt 0.557317 0.487721
vt 0.557317 0.512279
vt 0.539606 0.487721
vt 0.539606 0.512279
vt 0.520599 0.487721
vt 0.520599 0.512279
vn 0.0000 0.0000 1.0000
vn 0.0000 0.0000 -1.0000
vn 0.0000 -1.0000 0.0000
vn 0.0000 1.0000 0.0000
vn 1.0000 0.0000 0.0000
vn 0.1305 0.0000 -0.9914
vn 0.3827 0.0000 -0.9239
vn 0.6088 0.0000 -0.7934
vn 0.7934 0.0000 -0.6088
vn 0.9239 0.0000 -0.3827
vn 0.9914 0.0000 -0.1305
vn 0.1305 0.0000 0.9914
vn 0.3827 0.0000 0.9239
vn 0.6088 0.0000 0.7934
vn 0.7934 0.0000 0.6088
vn 0.9239 0.0000 0.3827
vn 0.9914 0.0000 0.1305
vn -0.1305 0.0000 0.9914
vn -0.3827 0.0000 0.9239
vn -0.6088 0.0000 0.7934
vn -0.7934 0.0000 0.6088
vn -0.9239 0.0000 0.3827
vn -0.9914 0.0000 0.1305
vn -0.1305 0.0000 -0.9914
vn -0.3827 0.0000 -0.9239
vn -0.6088 0.0000 -0.7934
vn -0.7934 0.0000 -0.6088
vn -0.9239 0.0000 -0.3827
vn -0.9914 0.0000 -0.1305
vn -1.0000 0.0000 0.0000
usemtl None
s off
f 1/1/1 73/2/1 43/3/1 87/4/1
f 22/5/2 101/6/2 29/7/2 59/8/2
f 86/9/3 85/10/3 89/11/3 91/12/3 93/13/3 95/14/3 97/15/3 112/16/3 110/17/3 108/18/3 106/19/3 104/20/3 102/21/3 16/22/3 58/23/3 57/24/3 61/25/3 63/26/3 65/27/3 67/28/3 69/29/3 84/30/3 82/31/3 80/32/3 78/33/3 76/34/3 74/35/3 9/36/3
f 98/37/4 96/38/4 94/39/4 92/40/4 90/41/4 88/42/4 37/43/4 72/44/4 71/45/4 75/46/4 77/47/4 79/48/4 81/49/4 83/50/4 70/51/4 68/52/4 66/53/4 64/54/4 62/55/4 60/56/4 51/57/4 100/58/4 99/59/4 103/60/4 105/61/4 107/62/4 109/63/4 111/64/4
f 8/65/5 23/66/5 50/67/5 44/68/5
f 22/5/6 59/8/6 56/69/6 24/70/6
f 24/70/7 56/69/7 55/71/7 25/72/7
f 25/72/8 55/71/8 54/73/8 26/74/8
f 26/75/9 54/76/9 53/77/9 27/78/9
f 27/78/10 53/77/10 52/79/10 28/80/10
f 28/80/11 52/79/11 50/67/11 23/66/11
f 43/3/12 73/2/12 14/81/12 45/82/12
f 45/82/13 14/81/13 13/83/13 46/84/13
f 46/84/14 13/83/14 12/85/14 47/86/14
f 47/87/15 12/88/15 11/89/15 48/90/15
f 48/90/16 11/89/16 10/91/16 49/92/16
f 49/92/17 10/91/17 8/65/17 44/68/17
f 1/1/18 87/4/18 42/93/18 3/94/18
f 3/94/19 42/93/19 41/95/19 4/96/19
f 4/96/20 41/95/20 40/97/20 5/98/20
f 5/99/21 40/100/21 39/101/21 6/102/21
f 6/102/22 39/101/22 38/103/22 7/104/22
f 7/104/23 38/103/23 36/105/23 2/106/23
f 29/7/24 101/6/24 21/107/24 31/108/24
f 31/108/25 21/107/25 20/109/25 32/110/25
f 32/110/26 20/109/26 19/111/26 33/112/26
f 33/113/27 19/114/27 18/115/27 34/116/27
f 34/116/28 18/115/28 17/117/28 35/118/28
f 35/118/29 17/117/29 15/119/29 30/120/29
f 15/119/30 2/106/30 36/105/30 30/120/30
