# Blender v2.81 (sub 3) OBJ File: ''
# www.blender.org
mtllib torch.mtl
o Circle_Circle.001
v 0.000000 0.253044 0.063790
v -0.096836 0.233782 0.063790
v -0.178929 0.178929 0.063790
v -0.233782 0.096836 0.063790
v -0.253044 -0.000000 0.063790
v -0.233782 -0.096836 0.063790
v -0.178929 -0.178929 0.063790
v -0.096836 -0.233782 0.063790
v -0.000000 -0.253044 0.063790
v 0.096836 -0.233782 0.063790
v 0.178929 -0.178929 0.063790
v 0.233782 -0.096836 0.063790
v 0.253044 0.000000 0.063790
v 0.233782 0.096836 0.063790
v 0.178929 0.178929 0.063790
v 0.096836 0.233782 0.063790
v 0.000000 0.212486 0.117724
v -0.081315 0.196311 0.117724
v -0.150250 0.150250 0.117724
v -0.196311 0.081315 0.117724
v -0.212486 0.000000 0.117724
v -0.196311 -0.081315 0.117724
v -0.150250 -0.150250 0.117724
v -0.081315 -0.196311 0.117724
v -0.000000 -0.212486 0.117724
v 0.081315 -0.196311 0.117724
v 0.150250 -0.150250 0.117724
v 0.196311 -0.081315 0.117724
v 0.212486 0.000000 0.117724
v 0.196311 0.081315 0.117724
v 0.150250 0.150250 0.117724
v 0.081315 0.196311 0.117724
v -0.000000 0.074219 0.117724
v -0.028402 0.068570 0.117724
v -0.052481 0.052481 0.117724
v -0.068570 0.028402 0.117724
v -0.074219 0.000000 0.117724
v -0.068570 -0.028402 0.117724
v -0.052481 -0.052481 0.117724
v -0.028402 -0.068570 0.117724
v -0.000000 -0.074219 0.117724
v 0.028402 -0.068570 0.117724
v 0.052481 -0.052481 0.117724
v 0.068570 -0.028402 0.117724
v 0.074219 0.000000 0.117724
v 0.068570 0.028402 0.117724
v 0.052481 0.052481 0.117724
v 0.028402 0.068570 0.117724
v -0.000000 0.074219 0.513451
v -0.028402 0.068570 0.513451
v -0.052481 0.052481 0.513451
v -0.068570 0.028402 0.513451
v -0.074219 0.000000 0.513451
v -0.068570 -0.028402 0.513451
v -0.052481 -0.052481 0.513451
v -0.028402 -0.068570 0.513451
v -0.000000 -0.074219 0.513451
v 0.028402 -0.068570 0.513451
v 0.052481 -0.052481 0.513451
v 0.068570 -0.028402 0.513451
v 0.074219 0.000000 0.513451
v 0.068570 0.028402 0.513451
v 0.052481 0.052481 0.513451
v 0.028402 0.068570 0.513451
v 0.023646 -0.096625 0.363628
v 0.043692 -0.096625 0.377022
v 0.057087 -0.096625 0.397069
v 0.061790 -0.096625 0.420715
v 0.057087 -0.096625 0.444361
v 0.043692 -0.096625 0.464407
v 0.023646 -0.096625 0.477801
v -0.000000 -0.096625 0.482505
v -0.023646 -0.096625 0.477801
v -0.043692 -0.096625 0.464407
v -0.057087 -0.096625 0.444361
v -0.061790 -0.096625 0.420715
v -0.057087 -0.096625 0.397069
v -0.043692 -0.096625 0.377022
v -0.023646 -0.096625 0.363628
v -0.000000 -0.096625 0.358925
v 0.000000 0.165435 0.358925
v 0.023646 0.165435 0.363628
v 0.043692 0.165435 0.377022
v 0.057087 0.165435 0.397069
v 0.061790 0.165435 0.420715
v 0.057087 0.165435 0.444361
v 0.043692 0.165435 0.464407
v 0.023646 0.165435 0.477801
v 0.000000 0.165435 0.482505
v -0.023646 0.165435 0.477801
v -0.043692 0.165435 0.464407
v -0.057087 0.165435 0.444361
v -0.061790 0.165435 0.420715
v -0.057087 0.165435 0.397069
v -0.043692 0.165435 0.377022
v -0.023646 0.165435 0.363628
v -0.434873 -0.000000 0.000000
v 0.000000 -0.728016 0.000000
v -0.000000 0.728016 -0.000000
v 0.434873 0.000000 -0.000000
v -0.000000 0.626976 0.063790
v -0.374518 -0.000000 0.063790
v 0.000000 -0.626976 0.063790
v 0.374518 0.000000 0.063789
v -0.081315 0.196311 0.117724
v 0.000000 0.212486 0.117724
v -0.150250 0.150250 0.117724
v -0.196311 0.081315 0.117724
v -0.212486 0.000000 0.117724
v -0.196311 -0.081315 0.117724
v -0.150250 -0.150250 0.117724
v -0.081315 -0.196311 0.117724
v -0.000000 -0.212486 0.117724
v 0.081315 -0.196311 0.117724
v 0.150250 -0.150250 0.117724
v 0.196311 -0.081315 0.117724
v 0.212486 0.000000 0.117724
v 0.196311 0.081315 0.117724
v 0.150250 0.150250 0.117724
v 0.081315 0.196311 0.117724
v -0.028402 0.068570 0.117724
v -0.000000 0.074219 0.117724
v -0.052481 0.052481 0.117724
v -0.068570 0.028402 0.117724
v -0.074219 0.000000 0.117724
v -0.068570 -0.028402 0.117724
v -0.052481 -0.052481 0.117724
v -0.028402 -0.068570 0.117724
v -0.000000 -0.074219 0.117724
v 0.028402 -0.068570 0.117724
v 0.052481 -0.052481 0.117724
v 0.068570 -0.028402 0.117724
v 0.074219 0.000000 0.117724
v 0.068570 0.028402 0.117724
v 0.052481 0.052481 0.117724
v 0.028402 0.068570 0.117724
v -0.028402 0.068570 0.513451
v -0.000000 0.074219 0.513451
v -0.052481 0.052481 0.513451
v -0.068570 0.028402 0.513451
v -0.074219 0.000000 0.513451
v -0.068570 -0.028402 0.513451
v -0.052481 -0.052481 0.513451
v -0.028402 -0.068570 0.513451
v -0.000000 -0.074219 0.513451
v 0.028402 -0.068570 0.513451
v 0.052481 -0.052481 0.513451
v 0.068570 -0.028402 0.513451
v 0.074219 0.000000 0.513451
v 0.068570 0.028402 0.513451
v 0.052481 0.052481 0.513451
v 0.028402 0.068570 0.513451
v -0.000000 -0.096625 0.358925
v 0.023646 -0.096625 0.363628
v 0.043692 -0.096625 0.377022
v 0.057087 -0.096625 0.397069
v 0.061790 -0.096625 0.420715
v 0.057087 -0.096625 0.444361
v 0.043692 -0.096625 0.464407
v 0.023646 -0.096625 0.477801
v -0.000000 -0.096625 0.482505
v -0.023646 -0.096625 0.477801
v -0.043692 -0.096625 0.464407
v -0.057087 -0.096625 0.444361
v -0.061790 -0.096625 0.420715
v -0.057087 -0.096625 0.397069
v -0.043692 -0.096625 0.377022
v -0.023646 -0.096625 0.363628
v 0.000000 0.165435 0.358925
v 0.023646 0.165435 0.363628
v 0.043692 0.165435 0.377022
v 0.057087 0.165435 0.397069
v 0.061790 0.165435 0.420715
v 0.057087 0.165435 0.444361
v 0.043692 0.165435 0.464407
v 0.023646 0.165435 0.477801
v 0.000000 0.165435 0.482505
v -0.023646 0.165435 0.477801
v -0.043692 0.165435 0.464407
v -0.057087 0.165435 0.444361
v -0.061790 0.165435 0.420715
v -0.057087 0.165435 0.397069
v -0.043692 0.165435 0.377022
v -0.023646 0.165435 0.363628
v -0.000000 0.626976 0.063790
v -0.000000 0.626976 0.063790
v -0.374518 -0.000000 0.063790
v -0.374518 -0.000000 0.063790
v 0.000000 -0.626976 0.063790
v 0.000000 -0.626976 0.063790
v 0.374518 0.000000 0.063789
v 0.374518 0.000000 0.063789
v -0.000000 0.728016 -0.000000
v -0.434873 -0.000000 0.000000
v 0.000000 -0.728016 0.000000
v 0.434873 0.000000 -0.000000
vt 0.615133 0.616981
vt 0.578091 0.597284
vt 0.578091 0.549939
vt 0.615133 0.560599
vt 0.433493 0.615133
vt 0.444153 0.578091
vt 0.396809 0.578091
vt 0.377112 0.615133
vt 0.566506 0.615133
vt 0.555847 0.578091
vt 0.603191 0.578091
vt 0.622888 0.615133
vt 0.500000 0.615133
vt 0.500000 0.578091
vt 0.433493 0.615133
vt 0.444153 0.578091
vt 0.500000 0.578091
vt 0.500000 0.615133
vt 0.566507 0.615133
vt 0.555847 0.578091
vt 0.377112 0.615133
vt 0.396809 0.578091
vt 0.622888 0.615133
vt 0.603191 0.578091
vt 0.615133 0.560599
vt 0.578091 0.549939
vt 0.578091 0.597284
vt 0.615133 0.616981
vt 0.615133 0.427586
vt 0.578091 0.438246
vt 0.578091 0.390901
vt 0.615133 0.371205
vt 0.615133 0.494093
vt 0.578091 0.494093
vt 0.615133 0.494093
vt 0.578091 0.494093
vt 0.615133 0.427586
vt 0.578091 0.438246
vt 0.615133 0.371205
vt 0.578091 0.390901
vt 0.634826 0.549939
vt 0.547093 0.513599
vt 0.550974 0.494093
vt 0.645935 0.494093
vt 0.396809 0.390901
vt 0.463956 0.458049
vt 0.452907 0.474586
vt 0.365174 0.438246
vt 0.603191 0.597284
vt 0.536044 0.530136
vt 0.444153 0.359267
vt 0.480493 0.446999
vt 0.555847 0.628919
vt 0.519507 0.541186
vt 0.500000 0.348158
vt 0.500000 0.443119
vt 0.444153 0.628919
vt 0.480493 0.541186
vt 0.500000 0.545066
vt 0.500000 0.640027
vt 0.555847 0.359267
vt 0.519507 0.446999
vt 0.396809 0.597284
vt 0.463956 0.530136
vt 0.603191 0.390901
vt 0.536044 0.458049
vt 0.365174 0.549939
vt 0.452907 0.513599
vt 0.634826 0.438246
vt 0.547093 0.474586
vt 0.354065 0.494093
vt 0.449026 0.494093
vt 0.578091 0.513599
vt 0.306307 0.513599
vt 0.306307 0.530136
vt 0.578091 0.530136
vt 0.578091 0.474586
vt 0.306307 0.474586
vt 0.306307 0.458049
vt 0.578091 0.458049
vt 0.578091 0.494093
vt 0.306307 0.494093
vt 0.578091 0.494093
vt 0.306307 0.494093
vt 0.578091 0.474586
vt 0.306307 0.474586
vt 0.578091 0.513599
vt 0.306307 0.513599
vt 0.578091 0.458049
vt 0.306307 0.458049
vt 0.578091 0.530136
vt 0.306307 0.530136
vt 0.480493 0.578091
vt 0.480493 0.306307
vt 0.463956 0.306307
vt 0.463956 0.578091
vt 0.519507 0.578091
vt 0.519507 0.306307
vt 0.536044 0.306307
vt 0.536044 0.578091
vt 0.500000 0.578091
vt 0.500000 0.306307
vt 0.480493 0.578091
vt 0.480493 0.306307
vt 0.500000 0.306307
vt 0.500000 0.578091
vt 0.519507 0.578091
vt 0.519507 0.306307
vt 0.463956 0.578091
vt 0.463956 0.306307
vt 0.536044 0.578091
vt 0.536044 0.306307
vt 0.480493 0.541186
vt 0.463956 0.530136
vt 0.452907 0.513599
vt 0.449026 0.494093
vt 0.452907 0.474586
vt 0.463956 0.458049
vt 0.480493 0.446999
vt 0.500000 0.443119
vt 0.519507 0.446999
vt 0.536044 0.458049
vt 0.547093 0.474586
vt 0.550974 0.494093
vt 0.547093 0.513599
vt 0.536044 0.530136
vt 0.519507 0.541186
vt 0.500000 0.545066
vt 0.483760 0.409205
vt 0.500000 0.412435
vt 0.516240 0.409205
vt 0.530008 0.400006
vt 0.539207 0.386238
vt 0.542437 0.369998
vt 0.539207 0.353758
vt 0.530008 0.339990
vt 0.516240 0.330791
vt 0.500000 0.327561
vt 0.483760 0.330791
vt 0.469992 0.339990
vt 0.460793 0.353758
vt 0.457563 0.369998
vt 0.460793 0.386238
vt 0.469992 0.400006
vt 0.483760 0.409205
vt 0.469992 0.400006
vt 0.460793 0.386238
vt 0.457563 0.369998
vt 0.460793 0.353758
vt 0.469992 0.339990
vt 0.483760 0.330791
vt 0.500000 0.327561
vt 0.516240 0.330791
vt 0.530008 0.339990
vt 0.539207 0.353758
vt 0.542437 0.369998
vt 0.539207 0.386238
vt 0.530008 0.400006
vt 0.516240 0.409205
vt 0.500000 0.412435
vt 0.339990 0.427731
vt 0.339990 0.607713
vt 0.353758 0.607713
vt 0.353758 0.427731
vt 0.386238 0.427731
vt 0.386238 0.607713
vt 0.369998 0.607713
vt 0.369998 0.427731
vt 0.369998 0.607713
vt 0.369998 0.427731
vt 0.353758 0.607713
vt 0.353758 0.427731
vt 0.386238 0.607713
vt 0.386238 0.427731
vt 0.339990 0.607713
vt 0.339990 0.427731
vt 0.400006 0.607713
vt 0.400006 0.427731
vt 0.530008 0.427731
vt 0.530008 0.607713
vt 0.516240 0.607713
vt 0.516240 0.427731
vt 0.469992 0.427731
vt 0.469992 0.607713
vt 0.483760 0.607713
vt 0.483760 0.427731
vt 0.500000 0.607713
vt 0.500000 0.427731
vt 0.500000 0.607713
vt 0.500000 0.427731
vt 0.483760 0.607713
vt 0.483760 0.427731
vt 0.516240 0.607713
vt 0.516240 0.427731
vt 0.530008 0.607713
vt 0.530008 0.427731
vt 0.469992 0.607713
vt 0.469992 0.427731
vt 0.400006 0.427731
vt 0.400006 0.607713
vt 0.500000 0.924699
vt 0.242782 0.494093
vt 0.500000 0.063487
vt 0.757218 0.494093
vt 0.615133 0.924699
vt 0.658944 0.994093
vt 0.658944 0.494093
vt 0.615133 0.494093
vt 0.615133 0.494093
vt 0.658944 0.494093
vt 0.658944 -0.005907
vt 0.615133 0.063487
vt 0.615133 0.063487
vt 0.658944 -0.005907
vt 0.658944 0.494093
vt 0.615133 0.494093
vt 0.615133 0.494093
vt 0.658944 0.494093
vt 0.658944 0.994093
vt 0.615133 0.924699
vn 0.5651 0.5651 0.6010
vn 0.7384 0.3058 0.6010
vn -0.3058 -0.7384 0.6010
vn -0.5651 -0.5651 0.6010
vn 0.3058 0.7384 0.6010
vn 0.0000 -0.7992 0.6010
vn -0.3058 0.7384 0.6010
vn 0.0000 0.7992 0.6010
vn 0.3058 -0.7384 0.6010
vn -0.5651 0.5651 0.6010
vn 0.5651 -0.5651 0.6010
vn -0.7384 0.3058 0.6010
vn 0.7384 -0.3058 0.6010
vn -0.7992 0.0000 0.6010
vn 0.7992 0.0000 0.6010
vn -0.7384 -0.3058 0.6010
vn 0.0000 0.0000 1.0000
vn -0.9239 0.3827 0.0000
vn -0.7071 0.7071 0.0000
vn 0.9239 -0.3827 0.0000
vn 0.7071 -0.7071 0.0000
vn -1.0000 0.0000 0.0000
vn 1.0000 0.0000 0.0000
vn -0.9239 -0.3827 0.0000
vn 0.9239 0.3827 0.0000
vn -0.7071 -0.7071 0.0000
vn 0.7071 0.7071 0.0000
vn -0.3827 -0.9239 0.0000
vn 0.3827 0.9239 0.0000
vn 0.0000 -1.0000 0.0000
vn -0.3827 0.9239 0.0000
vn 0.0000 1.0000 0.0000
vn 0.3827 -0.9239 0.0000
vn -0.7071 0.0000 0.7071
vn -0.9239 0.0000 0.3827
vn 0.9239 0.0000 -0.3827
vn 0.9239 0.0000 0.3827
vn -0.9239 0.0000 -0.3827
vn 0.7071 0.0000 0.7071
vn -0.7071 0.0000 -0.7071
vn 0.3827 0.0000 0.9239
vn -0.3827 0.0000 -0.9239
vn 0.0000 0.0000 -1.0000
vn -0.3827 0.0000 0.9239
vn 0.3827 0.0000 -0.9239
vn 0.7071 0.0000 -0.7071
vn -0.6663 0.3980 0.6305
vn -0.6663 -0.3980 0.6305
vn 0.6663 -0.3980 0.6305
vn 0.6663 0.3980 0.6305
usemtl None
s 1
f 15/1/1 119/2/1 118/3/2 14/4/2
f 8/5/3 112/6/3 111/7/4 7/8/4
f 16/9/5 120/10/5 119/11/1 15/12/1
f 9/13/6 113/14/6 112/6/3 8/5/3
f 2/15/7 105/16/7 106/17/8 1/18/8
f 1/18/8 106/17/8 120/10/5 16/9/5
f 10/19/9 114/20/9 113/14/6 9/13/6
f 3/21/10 107/22/10 105/16/7 2/15/7
f 11/23/11 115/24/11 114/20/9 10/19/9
f 4/25/12 108/26/12 107/27/10 3/28/10
f 12/29/13 116/30/13 115/31/11 11/32/11
f 5/33/14 109/34/14 108/26/12 4/25/12
f 13/35/15 117/36/15 116/30/13 12/29/13
f 6/37/16 110/38/16 109/34/14 5/33/14
f 14/4/2 118/3/2 117/36/15 13/35/15
f 7/39/4 111/40/4 110/38/16 6/37/16
f 30/41/17 134/42/17 133/43/17 29/44/17
f 23/45/17 127/46/17 126/47/17 22/48/17
f 31/49/17 135/50/17 134/42/17 30/41/17
f 24/51/17 128/52/17 127/46/17 23/45/17
f 32/53/17 136/54/17 135/50/17 31/49/17
f 25/55/17 129/56/17 128/52/17 24/51/17
f 18/57/17 121/58/17 122/59/17 17/60/17
f 17/60/17 122/59/17 136/54/17 32/53/17
f 26/61/17 130/62/17 129/56/17 25/55/17
f 19/63/17 123/64/17 121/58/17 18/57/17
f 27/65/17 131/66/17 130/62/17 26/61/17
f 20/67/17 124/68/17 123/64/17 19/63/17
f 28/69/17 132/70/17 131/66/17 27/65/17
f 21/71/17 125/72/17 124/68/17 20/67/17
f 29/44/17 133/43/17 132/70/17 28/69/17
f 22/48/17 126/47/17 125/72/17 21/71/17
f 36/73/18 140/74/18 139/75/19 35/76/19
f 44/77/20 148/78/20 147/79/21 43/80/21
f 37/81/22 141/82/22 140/74/18 36/73/18
f 45/83/23 149/84/23 148/78/20 44/77/20
f 38/85/24 142/86/24 141/82/22 37/81/22
f 46/87/25 150/88/25 149/84/23 45/83/23
f 39/89/26 143/90/26 142/86/24 38/85/24
f 47/91/27 151/92/27 150/88/25 46/87/25
f 40/93/28 144/94/28 143/95/26 39/96/26
f 48/97/29 152/98/29 151/99/27 47/100/27
f 41/101/30 145/102/30 144/94/28 40/93/28
f 34/103/31 137/104/31 138/105/32 33/106/32
f 33/106/32 138/105/32 152/98/29 48/97/29
f 42/107/33 146/108/33 145/102/30 41/101/30
f 35/109/19 139/110/19 137/104/31 34/103/31
f 43/111/21 147/112/21 146/108/33 42/107/33
f 50/113/17 51/114/17 52/115/17 53/116/17 54/117/17 55/118/17 56/119/17 57/120/17 58/121/17 59/122/17 60/123/17 61/124/17 62/125/17 63/126/17 64/127/17 49/128/17
f 168/129/30 153/130/30 154/131/30 155/132/30 156/133/30 157/134/30 158/135/30 159/136/30 160/137/30 161/138/30 162/139/30 163/140/30 164/141/30 165/142/30 166/143/30 167/144/30
f 184/145/32 183/146/32 182/147/32 181/148/32 180/149/32 179/150/32 178/151/32 177/152/32 176/153/32 175/154/32 174/155/32 173/156/32 172/157/32 171/158/32 170/159/32 169/160/32
f 74/161/34 91/162/34 92/163/35 75/164/35
f 67/165/36 84/166/36 85/167/23 68/168/23
f 75/164/35 92/163/35 93/169/22 76/170/22
f 68/168/23 85/167/23 86/171/37 69/172/37
f 76/170/22 93/169/22 94/173/38 77/174/38
f 69/172/37 86/171/37 87/175/39 70/176/39
f 77/174/38 94/173/38 95/177/40 78/178/40
f 70/179/39 87/180/39 88/181/41 71/182/41
f 78/183/40 95/184/40 96/185/42 79/186/42
f 71/182/41 88/181/41 89/187/17 72/188/17
f 79/186/42 96/185/42 81/189/43 80/190/43
f 72/188/17 89/187/17 90/191/44 73/192/44
f 80/190/43 81/189/43 82/193/45 65/194/45
f 65/194/45 82/193/45 83/195/46 66/196/46
f 73/192/44 90/191/44 91/197/34 74/198/34
f 66/199/46 83/200/46 84/166/36 67/165/36
f 185/201/17 187/202/17 189/203/17 191/204/17
f 186/205/47 193/206/47 194/207/47 188/208/47
f 102/209/48 97/210/48 195/211/48 190/212/48
f 103/213/49 98/214/49 196/215/49 192/216/49
f 104/217/50 100/218/50 99/219/50 101/220/50
